<?xml version="1.0" encoding="utf-8"?>
<!-- Generator: Adobe Illustrator 19.2.1, SVG Export Plug-In . SVG Version: 6.00 Build 0)  -->
<svg version="1.1" id="Layer_1" xmlns="http://www.w3.org/2000/svg" xmlns:xlink="http://www.w3.org/1999/xlink" x="0px" y="0px"
	 viewBox="0 0 200 1200" style="enable-background:new 0 0 200 1200;" xml:space="preserve">
<style type="text/css">
	.st0{fill:#3D815C;}
	.st1{fill:#5D3836;}
	.st2{fill-rule:evenodd;clip-rule:evenodd;fill:#FFFFFF;}
</style>
<rect id="verde" y="0" class="st0" width="100" height="1200"/>
<rect id="marrone" x="100" class="st1" width="100" height="1200"/>
<g id="Grosso">
	<path class="st2" d="M112.7,871.7l0,6.2l3.8,2.1c-4.1,6.5-6.7,13.3-6.7,21c0.1,24.9,22.8,43.2,46.7,43.2
		c19.5,0,33.3-12.3,33.3-32.3c0-8.2-3.3-16.5-8.4-22.9l5-1.4l0-12.2l-19.5-3.4c-3.1-0.6-5.9-0.8-7.6-3.9c-1.1-2-1.1-4.3-1.2-6.6
		l-8.5-1.6l0.1,36.3l8.7,1.7c0.7-4,0.6-8.5,5.9-8.5c8.9,0,14.7,9.9,14.7,17.8c0,12.2-10.5,16.3-21.1,16.3c-14.1,0-37.4-7-37.5-24.3
		c0-5.4,2.4-10.5,5.9-14.4c4.1-4.6,8.5-6.5,13.8-9.4l-0.5-8.5L112.7,871.7z"/>
	<path class="st2" d="M186.3,857.4l0-17.7l-14.1-2.7c-6.7-1.4-17-3.2-22.9-6.4c-2.6-1.3-6.3-4.1-6.3-7.5c0-3.3,4.2-4.4,4.2-10.5
		c0-5.4-3.2-10.6-9.1-10.5c-5.8,0-8.3,6.4-8.3,11.5c0,6.6,3.9,13.2,8.9,17.2l-0.5,0.2l-8-1.4l0,6c3.2,6.4,3.6,13.9,3.9,20.9l9.3,1.7
		c0.2-2.9,0.5-7.6,3.9-7.6c0.2,0-0.2,0.1,0.1,0.1L186.3,857.4z"/>
	<path class="st2" d="M178.5,776.7c0,6.2-4.4,8.5-9.9,8.6c-5.5,0-14.4-2.1-19.4-4.3c-5.5-2.5-9.7-5.6-9.7-12.1
		c0-6.4,4.1-8.7,9.9-8.7c5.9,0,14.3,1.8,19.6,4.2C174.5,767,178.5,770.3,178.5,776.7z M188.4,777c0-21.2-15.8-36.3-36.5-36.2
		c-6.8,0-13.7,3.3-17.5,9c-3.5,5.2-4.7,12.5-4.7,18.7c0,9.9,3.3,19.4,10.5,26.3c6.5,6.1,16.4,9.9,25.2,9.8
		C181.6,804.6,188.5,791.9,188.4,777z"/>
	<path class="st2" d="M150.1,705.9c-1,3-2,5.8-5.6,5.9c-4.4,0-6-4.4-6-8.1c0-10.3,8.6-8,8.6-17.2c0-3.5-2.3-7-6.1-7
		c-9.3,0-11.5,18-11.5,24.9c0,6.3,1.4,13.1,4.5,18.6c3.2,5.7,8.8,10,15.4,10c9.6,0,12.8-8.2,14.9-16.1l1.6-5.3
		c0.9-3,1.8-7.9,5.8-7.9c5.4,0,7.3,5.7,7.3,10.2c0,4.5-1.8,6.5-4.9,9.3c-3,2.6-4.9,5.5-4.9,9.7c0,4,2.6,7.3,6.7,7.3
		c9.6,0,12.3-19,12.3-26.2c0-7.1-1.4-14.4-4.8-20.8c-3-5.8-9.2-11.7-16.2-11.7c-9.2,0-11.9,7.2-14.2,14.6L150.1,705.9z"/>
	<path class="st2" d="M150,645.3c-1,3-2,5.8-5.6,5.9c-4.4,0-6-4.4-6-8.1c0-10.3,8.6-8,8.6-17.2c0-3.5-2.3-7-6.1-7
		c-9.3,0-11.5,18-11.5,24.9c0,6.3,1.4,13.1,4.5,18.6c3.2,5.7,8.8,10,15.4,10c9.6,0,12.8-8.2,14.9-16.1l1.6-5.3
		c0.9-3,1.8-7.9,5.8-7.9c5.4,0,7.3,5.7,7.3,10.2c0,4.5-1.8,6.5-4.9,9.3c-3,2.6-4.9,5.5-4.9,9.7c0,4,2.6,7.3,6.7,7.3
		c9.6,0,12.3-19,12.3-26.2c0-7.1-1.4-14.4-4.8-20.8c-3-5.8-9.2-11.7-16.2-11.7c-9.2,0-11.9,7.2-14.2,14.6L150,645.3z"/>
	<path class="st2" d="M178.2,588c0,6.2-4.4,8.5-9.9,8.6c-5.5,0-14.4-2.1-19.4-4.3c-5.5-2.5-9.7-5.6-9.7-12.1c0-6.4,4.1-8.7,9.9-8.7
		c5.9,0,14.3,1.8,19.6,4.2C174.1,578.3,178.1,581.6,178.2,588z M188,588.4c0-21.2-15.8-36.3-36.5-36.2c-6.8,0-13.7,3.3-17.5,9
		c-3.5,5.2-4.7,12.5-4.7,18.7c0,9.9,3.3,19.4,10.5,26.3c6.5,6.1,16.4,9.9,25.2,9.8C181.2,615.9,188.1,603.2,188,588.4z"/>
</g>
<g id="Antonio">
	<path class="st2" d="M50.7,914.5l0.1,17l-22.6-12.5L50.7,914.5z M14.2,905.1l0.1,15.5l47.4,27.8c7.6,4.3,11.5,5.9,13.4,15.8
		l7.4,1.4l-0.1-29.9l-7.6-1.5c-0.3,2.1,0.3,8-2.7,8c-1.5,0-2.4-0.5-3.6-1.1l-9.8-5.1l-0.1-23l12.7-2.4c0.2-0.1,0.8-0.1,1-0.1
		c2.6,0,3.6,5.1,3.6,7.4l0,1.9l6.3,1.5l-0.2-36.6l-7.6-1.4l0.2,1.2c-0.6,2.6-0.6,5-3.3,6.2c-1.8,0.8-5,1.8-7,2.2L14.2,905.1z"/>
	<path class="st2" d="M82.1,863l-37.5-6.7c-2.2-2.6-3.2-6.7-3.2-10.1c0-3.2,1.5-6.7,4.6-6.8c0.3,0,0.7,0,1,0.1l27,4.9
		c0.5,0.1,1,0.1,1.5,0.1c5.8,0,9-7.2,9-13.2c0-6.4-3.2-12.3-7.4-17.1l-5.7,4.1l0.7,1.1c0.8,1.1,1.3,2.4,1.3,3.8c0,2.1-1.5,3.9-3.4,4
		c-0.2,0-0.4-0.1-0.6-0.1l-27.2-4.7c-0.6-0.1-1.1-0.1-1.7-0.1c-6.8,0-10.2,8.3-10.2,15.3c0,5.7,2.3,12.8,6.2,17l-0.1,0.2l-5-0.9
		l0,5.6c1.6,6.7,2.6,14,3.3,19.2l6.8,1.2c0-2.7,1.1-7.2,4.2-7.2c0.2,0-0.5,0.1-0.3,0.1l36.6,6.6L82.1,863z"/>
	<path class="st2" d="M40.6,783.2l-0.1-14.1l-9.5-1.6l0.1,14.1l-14.2-2.7l0,9.4c6.3,2.7,14.9,7.8,17.2,17.4l6.6,1.3l0-7.2l33.6,5.7
		c0.5,0.1,0.9,0.1,1.4,0.1c6.3,0,8.7-7.6,8.7-13.8c0-8.4-3.8-16.3-9.5-22.3l-6.9,4.5c1.9,2.3,5.6,8.4,5.6,11.3
		c0,2.2-1.4,4.3-3.3,4.3l-0.5,0L40.6,783.2z"/>
	<path class="st2" d="M75,740.5c0,5.7-4,7.9-9.1,7.9c-5.1,0-13.3-1.9-17.9-4c-5.1-2.3-8.9-5.1-9-11.1c0-5.9,3.8-8,9.1-8
		c5.5,0,13.2,1.6,18.1,3.9C71.3,731.5,75,734.6,75,740.5z M84.1,740.8c-0.1-19.6-14.7-33.4-33.8-33.3c-6.3,0-12.6,3.1-16.1,8.4
		c-3.2,4.8-4.3,11.5-4.3,17.2c0,9.1,3.1,17.9,9.7,24.2c6,5.6,15.2,9,23.2,9C77.9,766.2,84.2,754.5,84.1,740.8z"/>
	<path class="st2" d="M81.3,684.9l-37.5-6.7c-2.2-2.6-3.2-6.7-3.2-10.1c0-3.2,1.5-6.7,4.6-6.8c0.3,0,0.7,0,1,0.1l27,4.9
		c0.5,0.1,1,0.1,1.5,0.1c5.8,0,9-7.2,9-13.2c0-6.4-3.2-12.3-7.4-17.1l-5.7,4.1l0.7,1.1c0.8,1.1,1.3,2.4,1.3,3.8c0,2.1-1.5,3.9-3.4,4
		c-0.2,0-0.4-0.1-0.6-0.1l-27.2-4.7c-0.6-0.1-1.1-0.1-1.7-0.1c-6.8,0-10.2,8.3-10.2,15.3c0,5.7,2.3,12.8,6.2,17l-0.1,0.2l-5-0.9
		l0,5.6c1.6,6.7,2.6,14,3.3,19.2l6.8,1.2c0-2.7,1.1-7.2,4.2-7.2c0.2,0-0.5,0.1-0.3,0.1l36.6,6.6L81.3,684.9z"/>
	<path class="st2" d="M24.4,612.6c0-6.5-5.5-12.3-12.1-12.3c-4.6,0-7.9,4.1-7.8,8.5c0,5.8,5.4,12,11.3,12
		C20.7,620.7,24.5,617.6,24.4,612.6z M30.3,603.8l0,5.4c1.6,5.3,3,14,3.3,20.8l8.5,1.3c0-2.5,0.6-5.2,1.6-7c0.7-1,1.4-2.3,2.5-2.3
		l0.5,0l26.5,5.2c0.5,0.1,0.9,0.5,1.3,0.5c6.4,0,9-8,9-14c0-6.6-3.4-12.7-7.6-17.5l-5.8,4.4c1.2,1.8,2.3,3.7,2.3,5.9
		c0,2.1-1.6,4.3-3.7,4.4l-0.4,0L30.3,603.8z"/>
	<path class="st2" d="M74.3,568.6c0,5.7-4,7.9-9.1,7.9c-5.1,0-13.3-1.9-17.9-4c-5.1-2.3-8.9-5.1-9-11.1c0-5.9,3.8-8,9.1-8
		c5.5,0,13.2,1.6,18.1,3.9C70.5,559.6,74.2,562.7,74.3,568.6z M83.4,568.9c-0.1-19.6-14.7-33.4-33.8-33.3c-6.3,0-12.6,3.1-16.1,8.4
		c-3.2,4.8-4.3,11.5-4.3,17.2c0,9.1,3.1,17.9,9.7,24.2c6,5.6,15.2,9,23.2,9C77.2,594.3,83.5,582.6,83.4,568.9z"/>
</g>
</svg>
