<?xml version="1.0" encoding="utf-8"?>
<!-- Generator: Adobe Illustrator 19.2.1, SVG Export Plug-In . SVG Version: 6.00 Build 0)  -->
<svg version="1.1" id="Layer_1" xmlns="http://www.w3.org/2000/svg" xmlns:xlink="http://www.w3.org/1999/xlink" x="0px" y="0px"
	 viewBox="0 0 350 40" style="enable-background:new 0 0 350 40;" xml:space="preserve">
<style type="text/css">
	.st0{fill-rule:evenodd;clip-rule:evenodd;fill:#3D815C;}
</style>
<g id="Grosso_Antonio">
	<path class="st0" d="M34.4,7.3h-2.3l-0.8,1.5c-2.5-1.6-5-2.5-7.9-2.5C13.9,6.3,7,14.9,7,24c0,7.4,4.6,12.6,12.2,12.6
		c3.1,0,6.2-1.2,8.6-3.1l0.5,1.9H33l1.3-7.4c0.2-1.2,0.3-2.3,1.5-2.9c0.8-0.4,1.6-0.4,2.5-0.5l0.6-3.2H25.2l-0.6,3.3
		c1.5,0.3,3.2,0.3,3.2,2.2c0,3.3-3.7,5.6-6.7,5.6c-4.6,0-6.1-4-6.1-8c0-5.3,2.7-14.1,9.2-14.1c2,0,3.9,0.9,5.4,2.2
		c1.7,1.6,2.5,3.2,3.5,5.2l3.2-0.2L34.4,7.3z"/>
	<path class="st0" d="M39.7,35.3h6.7l1-5.3c0.6-2.5,1.2-6.4,2.4-8.6c0.5-1,1.6-2.4,2.8-2.4c1.2,0,1.7,1.6,3.9,1.6c2,0,4-1.2,4-3.4
		c0-2.2-2.4-3.1-4.3-3.1c-2.5,0-5,1.4-6.5,3.4l-0.1-0.1l0.6-2.9H48c-2.4,1-5.3,1.2-7.9,1.4l-0.6,3.5c1.1,0.1,2.9,0.2,2.9,1.4
		c0,0.1,0-0.1,0,0.1L39.7,35.3z"/>
	<path class="st0" d="M70.2,32.4c-2.3,0-3.2-1.7-3.2-3.7c0-2.1,0.8-5.4,1.7-7.3c0.9-2.1,2.1-3.6,4.6-3.6c2.4,0,3.3,1.6,3.3,3.7
		c0,2.2-0.7,5.4-1.6,7.4C73.8,30.9,72.6,32.4,70.2,32.4z M70,36.2c8,0,13.7-5.9,13.7-13.8c0-2.6-1.2-5.2-3.4-6.6
		c-1.9-1.3-4.7-1.8-7-1.8c-3.7,0-7.3,1.2-9.9,3.9c-2.3,2.5-3.7,6.2-3.7,9.5C59.6,33.6,64.4,36.2,70,36.2z"/>
	<path class="st0" d="M96.9,21.7c-1.1-0.4-2.2-0.8-2.2-2.1c0-1.7,1.7-2.2,3.1-2.2c3.9,0,3,3.3,6.5,3.3c1.3,0,2.6-0.8,2.6-2.3
		c0-3.5-6.8-4.4-9.4-4.4c-2.4,0-5,0.5-7,1.7c-2.2,1.2-3.8,3.3-3.8,5.8c0,3.6,3.1,4.8,6.1,5.6l2,0.6c1.1,0.3,3,0.7,3,2.2
		c0,2-2.2,2.8-3.9,2.8c-1.7,0-2.5-0.7-3.5-1.9c-1-1.1-2.1-1.9-3.6-1.9c-1.5,0-2.8,1-2.8,2.5c0,3.6,7.2,4.7,9.9,4.7
		c2.7,0,5.4-0.5,7.8-1.8c2.2-1.1,4.4-3.5,4.4-6.1c0-3.5-2.7-4.5-5.5-5.4L96.9,21.7z"/>
	<path class="st0" d="M119.8,21.7c-1.1-0.4-2.2-0.8-2.2-2.1c0-1.7,1.7-2.2,3.1-2.2c3.9,0,3,3.3,6.5,3.3c1.3,0,2.6-0.8,2.6-2.3
		c0-3.5-6.8-4.4-9.4-4.4c-2.4,0-5,0.5-7,1.7c-2.2,1.2-3.8,3.3-3.8,5.8c0,3.6,3.1,4.8,6.1,5.6l2,0.6c1.1,0.3,3,0.7,3,2.2
		c0,2-2.2,2.8-3.9,2.8c-1.7,0-2.5-0.7-3.5-1.9c-1-1.1-2.1-1.9-3.6-1.9c-1.5,0-2.8,1-2.8,2.5c0,3.6,7.2,4.7,9.9,4.7
		c2.7,0,5.4-0.5,7.8-1.8c2.2-1.1,4.4-3.5,4.4-6.1c0-3.5-2.7-4.5-5.5-5.4L119.8,21.7z"/>
	<path class="st0" d="M141.3,32.4c-2.3,0-3.2-1.7-3.2-3.7c0-2.1,0.8-5.4,1.7-7.3c0.9-2.1,2.1-3.6,4.6-3.6c2.4,0,3.3,1.6,3.3,3.7
		c0,2.2-0.7,5.4-1.6,7.4C145,30.9,143.7,32.4,141.3,32.4z M141.2,36.2c8,0,13.7-5.9,13.7-13.8c0-2.6-1.2-5.2-3.4-6.6
		c-1.9-1.3-4.7-1.8-7-1.8c-3.7,0-7.3,1.2-9.9,3.9c-2.3,2.5-3.7,6.2-3.7,9.5C130.8,33.6,135.6,36.2,141.2,36.2z"/>
	<path class="st0" d="M188,22.3H181l5.2-9.2L188,22.3z M191.9,7.3h-6.4l-11.4,19.3c-1.8,3.1-2.4,4.8-6.5,5.6l-0.6,3.1h12.2l0.6-3.2
		c-0.8-0.1-3.3,0-3.3-1.2c0-0.6,0.2-1,0.5-1.5l2.1-4h9.4l1,5.2c0,0.1,0,0.3,0,0.3c0,1.1-2.1,1.4-3.1,1.4h-0.8l-0.6,3h15l0.6-3.2
		l-0.5,0c-1.1-0.3-2-0.3-2.5-1.4c-0.3-0.7-0.7-2-0.9-2.8L191.9,7.3z"/>
	<path class="st0" d="M209,35.3l2.8-15.4c1.1-0.9,2.8-1.4,4.2-1.4c1.3,0,2.8,0.6,2.8,1.9c0,0.1,0,0.3,0,0.4l-2,11c0,0.2,0,0.4,0,0.6
		c0,2.4,2.9,3.7,5.4,3.7c2.6,0,5-1.3,7-3l-1.7-2.3l-0.5,0.3c-0.5,0.3-1,0.5-1.6,0.5c-0.8,0-1.6-0.6-1.6-1.4c0-0.1,0-0.2,0-0.3
		l2-11.1c0-0.3,0-0.5,0-0.7c0-2.8-3.4-4.2-6.2-4.2c-2.3,0-5.3,0.9-6.9,2.5l-0.1-0.1l0.4-2.1h-2.3c-2.8,1-5.7,1.1-7.9,1.4l-0.5,2.8
		c1.1,0,2.9,0.5,2.9,1.7c0,0.1,0-0.1,0,0l-2.8,15.1H209z"/>
	<path class="st0" d="M241.7,18.3h5.8l0.7-4h-5.8l1.1-6h-3.9c-1.1,3-3.2,6.2-7.2,7.2l-0.6,2.8h3L232.5,32c0,0.2,0,0.3,0,0.6
		c0,2.6,3.1,3.6,5.6,3.6c3.4,0,6.7-1.5,9.2-3.9l-1.8-2.8c-0.9,0.8-3.3,2.3-4.5,2.3c-0.9,0-1.6-0.6-1.6-1.4v-0.2L241.7,18.3z"/>
	<path class="st0" d="M259.1,32.4c-2.3,0-3.2-1.7-3.2-3.7c0-2.1,0.8-5.4,1.7-7.3c0.9-2.1,2.1-3.6,4.6-3.6c2.4,0,3.3,1.6,3.3,3.7
		c0,2.2-0.7,5.4-1.6,7.4C262.8,30.9,261.5,32.4,259.1,32.4z M259,36.2c8,0,13.7-5.9,13.7-13.8c0-2.6-1.2-5.2-3.4-6.6
		c-1.9-1.3-4.7-1.8-7-1.8c-3.7,0-7.3,1.2-9.9,3.9c-2.3,2.5-3.7,6.2-3.7,9.5C248.6,33.6,253.4,36.2,259,36.2z"/>
	<path class="st0" d="M281.8,35.3l2.8-15.4c1.1-0.9,2.8-1.4,4.2-1.4c1.3,0,2.8,0.6,2.8,1.9c0,0.1,0,0.3,0,0.4l-2,11
		c0,0.2,0,0.4,0,0.6c0,2.4,2.9,3.7,5.4,3.7c2.6,0,5-1.3,7-3l-1.7-2.3l-0.5,0.3c-0.5,0.3-1,0.5-1.6,0.5c-0.8,0-1.6-0.6-1.6-1.4
		c0-0.1,0-0.2,0-0.3l2-11.1c0-0.3,0-0.5,0-0.7c0-2.8-3.4-4.2-6.2-4.2c-2.3,0-5.3,0.9-6.9,2.5l-0.1-0.1l0.4-2.1h-2.3
		c-2.8,1-5.7,1.1-7.9,1.4l-0.5,2.8c1.1,0,2.9,0.5,2.9,1.7c0,0.1,0-0.1,0,0l-2.8,15.1H281.8z"/>
	<path class="st0" d="M311.5,12c2.7,0,5-2.2,5-4.9c0-1.9-1.7-3.2-3.5-3.2c-2.4,0-4.9,2.2-4.9,4.6C308.2,10.4,309.5,12,311.5,12z
		 M315.1,14.3h-2.2c-2.2,1-5.7,1.2-8.5,1.4l-0.6,3.5c1,0,2,0.3,2.7,0.7c0.4,0.3,0.8,0.6,0.8,1v0.2l-2,10.8c0,0.2-0.1,0.4-0.1,0.5
		c0,2.6,3.3,3.7,5.8,3.7c2.7,0,5.2-1.4,7.2-3.1l-1.8-2.4c-0.7,0.5-1.4,0.9-2.3,0.9c-0.8,0-1.7-0.7-1.7-1.5v-0.2L315.1,14.3z"/>
	<path class="st0" d="M329.4,32.4c-2.3,0-3.2-1.7-3.2-3.7c0-2.1,0.8-5.4,1.7-7.3c0.9-2.1,2.1-3.6,4.6-3.6c2.4,0,3.3,1.6,3.3,3.7
		c0,2.2-0.7,5.4-1.6,7.4C333.1,30.9,331.8,32.4,329.4,32.4z M329.3,36.2c8,0,13.7-5.9,13.7-13.8c0-2.6-1.2-5.2-3.4-6.6
		c-1.9-1.3-4.7-1.8-7-1.8c-3.7,0-7.3,1.2-9.9,3.9c-2.3,2.5-3.7,6.2-3.7,9.5C318.9,33.6,323.7,36.2,329.3,36.2z"/>
</g>
</svg>
