<?xml version="1.0" encoding="utf-8"?>
<!-- Generator: Adobe Illustrator 19.2.1, SVG Export Plug-In  -->
<svg version="1.1"
	 xmlns="http://www.w3.org/2000/svg" xmlns:xlink="http://www.w3.org/1999/xlink" xmlns:a="http://ns.adobe.com/AdobeSVGViewerExtensions/3.0/"
	 x="0px" y="0px" width="61px" height="78.4px" viewBox="0 0 61 78.4" style="enable-background:new 0 0 61 78.4;"
	 xml:space="preserve">
<style type="text/css">
	.st0{fill:#FFFFFF;}
	.st1{fill:#29573D;}
	.st2{fill:#3D815C;}
</style>
<defs>
</defs>
<g>
	<path class="st0" d="M60.5,30.6c0-16.6-13.4-30-30-30c-16.6,0-30,13.4-30,30c0,7.1,2.5,13.6,6.6,18.7c0,0,0,0,0,0s0,0,0,0
		c7.7,9.7,18.7,23.3,22.3,27.8c0.3,0.4,0.7,0.6,1.2,0.6c0.5,0,0.9-0.2,1.2-0.6c3.6-4.5,14.5-18.1,22.3-27.8c0,0,0,0,0,0s0,0,0,0
		C58,44.2,60.5,37.7,60.5,30.6z"/>
</g>
<g>
	<path class="st1" d="M61,30.5C61,13.7,47.3,0,30.5,0C13.7,0,0,13.7,0,30.5c0,7.2,2.5,13.8,6.7,19c0,0,0,0,0,0c0,0,0,0,0,0
		c7.9,9.8,19,23.7,22.6,28.3c0.3,0.4,0.7,0.6,1.2,0.6c0.5,0,0.9-0.2,1.2-0.6c3.6-4.5,14.7-18.4,22.6-28.3c0,0,0,0,0,0c0,0,0,0,0,0
		C58.5,44.3,61,37.7,61,30.5z M49.4,46L30.5,69.5L11.8,46.2L11.6,46c-0.1-0.1-0.1-0.2-0.2-0.2c-3.5-4.4-5.3-9.6-5.3-15.2
		C6.1,17,17,6.1,30.5,6.1S54.9,17,54.9,30.5c0,5.6-1.8,10.9-5.3,15.2C49.5,45.8,49.4,45.9,49.4,46z"/>
	<circle class="st2" cx="30.5" cy="28.7" r="10.5"/>
</g>
</svg>
