<?xml version="1.0" encoding="UTF-8"?>
<svg id="a" data-name="Layer_1" xmlns="http://www.w3.org/2000/svg" xmlns:xlink="http://www.w3.org/1999/xlink" viewBox="0 0 500 140">
  <defs>
    <style>
      .c {
        fill: #7e5e44;
      }

      .d, .e {
        fill: #0f9143;
      }

      .d, .f {
        fill-rule: evenodd;
      }

      .g, .h, .i {
        fill: none;
      }

      .h {
        stroke: #664c38;
      }

      .h, .i {
        stroke-miterlimit: 3.86;
        stroke-width: 1.13px;
      }

      .j, .f {
        fill: #664c38;
      }

      .k {
        clip-path: url(#b);
      }

      .i {
        stroke: #0f9143;
      }
    </style>
    <clipPath id="b">
      <polyline class="g" points="10 70.15 32.83 10 55.68 70.15 32.85 130.29 10 70.15"/>
    </clipPath>
  </defs>
  <path class="e" d="M81.69,23.96h-2.16l-.74,1.57c-2.27-1.45-4.62-2.23-7.32-2.23-8.69,0-15.08,7.99-15.08,16.33,0,6.81,4.27,11.67,11.24,11.67,2.86,0,5.76-.86,7.99-2.66l.47,2h4.27l1.22-7.05c.19-1.1.27-2.19,1.37-2.78.7-.39,1.49-.63,2.31-.67l.55-3.21h-12.65l-.59,3.21c1.41.24,2.97.31,2.97,2.15,0,3.09-3.45,5.17-6.23,5.17-4.27,0-5.68-3.64-5.68-7.36,0-4.93,2.47-13.04,8.5-13.04,1.88,0,3.64.86,5.01,2.08,1.61,1.45,2.27,2.98,3.25,4.82l2.97-.39-1.68-9.59"/>
  <path class="e" d="M86.57,50.62h6.19l.94-5.17c.51-2.35,1.14-6.07,2.23-8.11.47-.9,1.45-2.27,2.63-2.27s1.53,1.45,3.64,1.45c1.88,0,3.68-1.14,3.68-3.17s-2.23-2.9-3.99-2.9c-2.31,0-4.62,1.33-5.99,3.09l-.08-.08.51-2.7h-2.08c-2.23,1.06-4.86,1.14-7.29,1.25l-.59,3.21c1.1.08,2.9.16,2.62,1.61l-2.43,13.78"/>
  <path class="d" d="M114.61,47.49c-2.16,0-2.98-1.53-2.98-3.45s.75-5.01,1.53-6.77c.86-1.92,1.96-3.37,4.23-3.37s3.02,1.45,3.02,3.45-.63,4.97-1.49,6.85c-.9,1.88-2.08,3.29-4.31,3.29M114.49,50.94c7.4,0,12.65-5.48,12.65-12.73,0-2.39-1.13-4.78-3.13-6.11-1.8-1.21-4.35-1.64-6.5-1.64-3.45,0-6.78,1.14-9.16,3.64-2.11,2.27-3.44,5.72-3.44,8.77,0,5.68,4.42,8.07,9.59,8.07Z"/>
  <path class="e" d="M140.51,38.01l-1.25-.39c-1.06-.35-2.04-.7-2.04-1.96,0-1.53,1.53-2.08,2.82-2.08,3.6,0,2.78,3.02,5.99,3.02,1.22,0,2.43-.78,2.43-2.11,0-3.25-6.27-4.03-8.65-4.03-2.19,0-4.58.47-6.5,1.57-2,1.1-3.48,3.05-3.48,5.36,0,3.37,2.86,4.46,5.6,5.21l1.84.55c1.06.31,2.74.63,2.74,2.04,0,1.88-2,2.55-3.56,2.55s-2.27-.63-3.25-1.72c-.9-1.06-1.92-1.72-3.37-1.72s-2.55.9-2.55,2.35c0,3.37,6.62,4.31,9.12,4.31s5.01-.47,7.25-1.64c2.04-1.06,4.07-3.21,4.07-5.64,0-3.21-2.51-4.15-5.09-4.97l-2.11-.67"/>
  <path class="e" d="M161.61,38.01l-1.25-.39c-1.06-.35-2.04-.7-2.04-1.96,0-1.53,1.53-2.08,2.82-2.08,3.6,0,2.78,3.02,5.99,3.02,1.21,0,2.43-.78,2.43-2.11,0-3.25-6.27-4.03-8.65-4.03-2.19,0-4.58.47-6.5,1.57-2,1.1-3.49,3.05-3.49,5.36,0,3.37,2.86,4.46,5.6,5.21l1.84.55c1.06.31,2.74.63,2.74,2.04,0,1.88-2,2.55-3.56,2.55s-2.27-.63-3.25-1.72c-.9-1.06-1.92-1.72-3.37-1.72s-2.55.9-2.55,2.35c0,3.37,6.62,4.31,9.12,4.31s5.01-.47,7.25-1.64c2.04-1.06,4.07-3.21,4.07-5.64,0-3.21-2.51-4.15-5.09-4.97l-2.11-.67"/>
  <path class="d" d="M180.23,47.49c-2.15,0-2.97-1.53-2.97-3.45s.74-5.01,1.53-6.77c.86-1.92,1.96-3.37,4.23-3.37s3.02,1.45,3.02,3.45-.63,4.97-1.49,6.85c-.9,1.88-2.08,3.29-4.31,3.29M180.11,50.94c7.4,0,12.65-5.48,12.65-12.73,0-2.39-1.13-4.78-3.13-6.11-1.8-1.21-4.35-1.64-6.5-1.64-3.45,0-6.77,1.14-9.16,3.64-2.11,2.27-3.44,5.72-3.44,8.77,0,5.68,4.42,8.07,9.59,8.07Z"/>
  <path class="d" d="M223.27,38.09h-6.42l4.78-8.54,1.64,8.54M226.88,23.96h-5.87l-10.57,18.01c-1.64,2.86-2.23,4.74-5.99,5.44l-.55,3.21h11.32l.59-3.21c-.78-.12-3.01-.08-3.01-1.21,0-.55.19-.9.43-1.37l1.96-3.68h8.7l.9,4.74c.35,1.25-1.8,1.33-2.78,1.53h-.7l-.59,3.21h13.82l.55-3.21-.47-.08c-.98-.23-1.88-.31-2.35-1.33-.31-.67-.67-2.08-.82-2.82l-4.54-19.23Z"/>
  <path class="e" d="M242.64,50.62l2.58-14.49c.98-.82,2.55-1.37,3.84-1.37s2.78.63,2.51,2.04l-1.88,10.18c-.47,2.55,2.47,3.96,4.93,3.96s4.66-1.17,6.46-2.78l-1.53-2.15-.43.27c-.43.31-.9.47-1.45.47-.86,0-1.61-.7-1.45-1.53l1.84-10.26c.55-3.02-2.9-4.5-5.72-4.5-2.16,0-4.86.86-6.42,2.31l-.08-.08.35-1.92h-2.11c-2.55.67-5.29.98-7.29,1.25l-.47,2.58c1.1,0,2.9.47,2.66,1.84l-2.55,14.18h6.19"/>
  <path class="e" d="M272.82,34.33h5.33l.63-3.56h-5.33l1.06-5.91h-3.56c-1.02,3.45-2.98,5.87-6.62,6.74l-.51,2.74h2.74l-2.19,12.73c-.47,2.78,2.66,3.88,5.17,3.88,3.17,0,6.19-1.41,8.46-3.56l-1.69-2.62c-.86.7-2.94,2.11-4.03,2.11-.9,0-1.49-.67-1.37-1.45l1.92-11.08"/>
  <path class="d" d="M288.86,47.49c-2.15,0-2.98-1.53-2.98-3.45s.74-5.01,1.53-6.77c.86-1.92,1.96-3.37,4.23-3.37s3.02,1.45,3.02,3.45-.63,4.97-1.49,6.85c-.9,1.88-2.08,3.29-4.31,3.29M288.75,50.94c7.4,0,12.65-5.48,12.65-12.73,0-2.39-1.14-4.78-3.13-6.11-1.8-1.21-4.35-1.64-6.5-1.64-3.45,0-6.77,1.14-9.16,3.64-2.11,2.27-3.44,5.72-3.44,8.77,0,5.68,4.42,8.07,9.59,8.07Z"/>
  <path class="e" d="M309.84,50.62l2.58-14.49c.98-.82,2.55-1.37,3.84-1.37s2.78.63,2.51,2.04l-1.88,10.18c-.47,2.55,2.47,3.96,4.93,3.96s4.66-1.17,6.46-2.78l-1.53-2.15-.43.27c-.43.31-.9.47-1.45.47-.86,0-1.61-.7-1.45-1.53l1.84-10.26c.55-3.02-2.9-4.5-5.72-4.5-2.16,0-4.86.86-6.42,2.31l-.08-.08.35-1.92h-2.11c-2.55.67-5.29.98-7.28,1.25l-.47,2.58c1.1,0,2.9.47,2.66,1.84l-2.55,14.18h6.19"/>
  <path class="d" d="M337.23,28.58c2.47,0,4.66-2.08,4.66-4.54,0-1.72-1.53-2.98-3.21-2.98-2.19,0-4.54,2.04-4.54,4.27,0,1.84,1.17,3.25,3.09,3.25M340.52,30.77h-2.04c-2,.74-5.29,1.14-7.87,1.25l-.51,3.21c.94,0,1.68.24,2.35.63.47.31.67.63.59,1.14l-1.72,10.02c-.47,2.82,2.9,3.92,5.33,3.92s4.85-1.25,6.66-2.86l-1.64-2.19c-.67.43-1.25.86-2.08.86-.86,0-1.61-.74-1.49-1.57l2.43-14.41Z"/>
  <path class="d" d="M353.71,47.49c-2.16,0-2.98-1.53-2.98-3.45s.74-5.01,1.53-6.77c.86-1.92,1.96-3.37,4.23-3.37s3.02,1.45,3.02,3.45-.63,4.97-1.49,6.85c-.9,1.88-2.08,3.29-4.31,3.29M353.59,50.94c7.4,0,12.65-5.48,12.65-12.73,0-2.39-1.14-4.78-3.13-6.11-1.8-1.21-4.35-1.64-6.5-1.64-3.45,0-6.77,1.14-9.16,3.64-2.11,2.27-3.44,5.72-3.44,8.77,0,5.68,4.42,8.07,9.59,8.07Z"/>
  <path class="e" d="M404.47,42.56l-2.7-.98c-2.39,3.95-3.56,3.84-7.87,3.84h-4.35l3.29-2c4.54-2.74,11.98-6.85,11.98-12.92,0-5.4-5.4-7.2-9.95-7.2-2.94,0-5.6.67-7.99,2.51-1.76,1.41-3.29,3.49-3.29,5.83,0,1.8,1.14,3.21,3.02,3.21,1.72,0,3.45-1.61,3.45-3.37,0-.94-.78-1.57-.78-2.23,0-.63.51-1.25,1.02-1.61.98-.74,2.31-1.1,3.49-1.1,2.04,0,3.56,1.49,3.56,3.53,0,3.96-3.49,7.64-6.34,10.02-2.98,2.51-5.6,3.99-8.93,5.95l-1.02.59.35,3.99h19.46l3.6-8.07"/>
  <path class="e" d="M410.21,50.94c2.23,0,4.46-1.92,4.46-4.23,0-1.72-1.29-3.02-3.02-3.02-2.39,0-4.43,2.08-4.43,4.43,0,1.57,1.41,2.82,2.98,2.82"/>
  <path class="d" d="M428.21,47.88c-2.97,0-3.72-3.02-3.72-5.4,0-3.05.55-6.34,1.41-9.28.86-2.78,2.27-6.42,5.76-6.42,2.98,0,3.64,3.17,3.64,5.52,0,4.19-1.41,15.59-7.09,15.59M427.67,51.29c9.32,0,14.29-8.93,14.29-17.35,0-2.66-.67-5.64-2.47-7.68-1.8-2-4.54-2.98-7.17-2.98-4.38,0-8.69,2.27-11.12,5.95-2.15,3.21-3.37,7.87-3.37,11.71,0,6.11,3.52,10.34,9.83,10.34Z"/>
  <path class="e" d="M466.59,32.84h-1.64l-.55,1.12c-1.67-1.02-3.63-1.57-5.59-1.57s-3.68.37-5.27,1.41c-1.43.97-2.4,2.53-2.4,4.31,0,1.44.57,2.79,1.78,3.68.97.76,2.4,1.12,3.58,1.41l2.79.65c1.28.31,2.66.65,2.66,2.3,0,1.88-2.3,2.56-3.81,2.56-3.29,0-5.64-2.06-6.58-5.12l-2.04.34,1.2,6.68h1.72l.55-1.17c1.64,1.12,3.76,1.62,5.72,1.62,3.71,0,8.35-2.14,8.35-6.4,0-1.44-.65-2.74-1.78-3.63-.94-.7-2.38-1.12-3.5-1.41l-2.66-.7c-.55-.16-2.01-.5-2.45-.81-.45-.31-.68-.7-.68-1.25,0-1.49,2.11-2.11,3.32-2.11,2.61,0,4.88,1.51,5.56,4.07h1.98l-.26-5.98"/>
  <path class="e" d="M468.57,50.62h4.12l.63-3.45c.34-1.57.76-4.05,1.49-5.4.31-.6.97-1.51,1.75-1.51s1.02.97,2.43.97c1.25,0,2.45-.76,2.45-2.11s-1.49-1.93-2.66-1.93c-1.54,0-3.08.89-3.99,2.06l-.05-.05.34-1.8h-1.38c-1.49.7-3.24.76-4.86.84l-.39,2.14c.73.05,1.93.1,1.75,1.07l-1.62,9.19"/>
  <path class="e" d="M489.3,31.51h-1.31c-1.59.55-3.52.76-5.17.84l-.34,2.14c.5,0,1.02.13,1.44.37.42.23.47.6.42.94l-2.17,12.51c-.29,1.7,1.88,2.53,3.4,2.53,1.75,0,3.16-.68,4.44-1.8l-1.07-1.57-.47.29c-.29.21-.52.37-.89.37-.6,0-1.07-.52-.97-1.07l2.69-15.53"/>
  <line class="i" x1="40.57" y1="70.23" x2="489.21" y2="70.23"/>
  <line class="h" x1="38.3" y1="94.32" x2="489.21" y2="94.32"/>
  <polyline class="e" points="10 70.15 32.83 10 55.68 70.15 32.85 130.29 10 70.15"/>
  <g class="k">
    <rect class="c" x="32.87" y="10" width="22.81" height="120.29"/>
  </g>
  <g>
    <path class="j" d="M62.82,87.27h.23l3.67-8.04h.03v6.19c0,1.22,0,1.58-1.36,1.58v.26h4.09v-.26c-1.36,0-1.36-.36-1.36-1.58v-5.92c0-1.22,0-1.58,1.36-1.58v-.26h-2.71l-3.44,7.51-3.48-7.51h-2.73v.26c1.22,0,1.36.41,1.36,1.57v5.93c0,1.22,0,1.58-1.36,1.58v.26h3.35v-.26c-1.36,0-1.36-.36-1.36-1.58v-6.19h.03l3.68,8.04"/>
    <path class="f" d="M77.04,83.52h-3.31l1.67-3.87,1.64,3.87M77.22,84.05l.52,1.2c.11.29.35.78.35,1.1,0,.51-.36.62-.99.65v.26h3.79v-.26c-1.07-.04-1.35-.86-1.71-1.73l-3.26-7.83h-.26l-3.45,8.09c-.44,1.02-.74,1.39-1.5,1.46v.26h3.02v-.26c-.54-.04-1.12-.1-1.12-.64,0-.28.2-.73.32-.97l.58-1.35h3.71Z"/>
    <path class="j" d="M90.01,77.45h-.25c-.06.3-.25.67-.57.67-.15,0-.3-.09-.42-.15-.68-.33-1.29-.51-2.05-.51-2.94,0-4.92,2.35-4.92,5.19s1.89,4.83,4.66,4.83c1.9,0,3.09-.84,3.97-2.47l-.22-.15c-.87,1.26-1.67,1.99-3.21,1.99-1.65,0-3.58-1-3.58-4.22s1.42-4.68,3.35-4.68c1.8,0,2.77,1.12,3.22,2.76h.22l-.22-3.26"/>
    <path class="j" d="M100.51,77.45h-.25c-.06.3-.25.67-.57.67-.15,0-.3-.09-.42-.15-.68-.33-1.29-.51-2.05-.51-2.94,0-4.92,2.35-4.92,5.19s1.89,4.83,4.66,4.83c1.9,0,3.09-.84,3.97-2.47l-.22-.15c-.87,1.26-1.67,1.99-3.21,1.99-1.65,0-3.58-1-3.58-4.22s1.42-4.68,3.35-4.68c1.8,0,2.77,1.12,3.22,2.76h.22l-.22-3.26"/>
    <path class="j" d="M105.27,82.12v-2.61c0-1.22,0-1.58,1.36-1.58v-.26h-4.09v.26c1.36,0,1.36.36,1.36,1.58v5.92c0,1.22,0,1.58-1.36,1.58v.26h4.09v-.26c-1.36,0-1.36-.36-1.36-1.58v-2.78h4.47v2.78c0,1.22,0,1.58-1.36,1.58v.26h4.09v-.26c-1.36,0-1.36-.36-1.36-1.58v-5.92c0-1.22,0-1.58,1.36-1.58v-.26h-4.09v.26c1.36,0,1.36.36,1.36,1.58v2.61h-4.47"/>
    <path class="j" d="M116.65,79.51c0-1.22,0-1.58,1.36-1.58v-.26h-4.09v.26c1.36,0,1.36.36,1.36,1.58v5.92c0,1.22,0,1.58-1.36,1.58v.26h4.09v-.26c-1.36,0-1.36-.36-1.36-1.58v-5.92"/>
    <path class="j" d="M121.56,79.71h.03l6.29,7.72h.26v-7.92c0-1.22,0-1.58,1.36-1.58v-.26h-3.35v.26c1.36,0,1.36.36,1.36,1.58v5.34h-.03l-5.85-7.18h-2.61v.26c.97,0,1.38.35,1.9,1v6.5c0,1.22,0,1.58-1.36,1.58v.26h3.35v-.26c-1.36,0-1.36-.36-1.36-1.58v-5.71"/>
    <path class="f" d="M136.46,83.52h-3.31l1.67-3.87,1.64,3.87M136.65,84.05l.52,1.2c.11.29.35.78.35,1.1,0,.51-.36.62-.99.65v.26h3.79v-.26c-1.07-.04-1.35-.86-1.71-1.73l-3.26-7.83h-.26l-3.45,8.09c-.43,1.02-.74,1.39-1.49,1.46v.26h3.02v-.26c-.54-.04-1.12-.1-1.12-.64,0-.28.2-.73.32-.97l.58-1.35h3.71Z"/>
    <path class="f" d="M144.28,78.32c.39-.06.78-.13,1.19-.13,1.17,0,1.96.87,1.96,2.03,0,1.61-1.45,2.1-2.83,2.1h-.32v-4M151.1,87.27v-.26c-1.32-.1-1.84-.81-2.55-1.8l-1.87-2.61c1.26-.26,2.38-1.04,2.38-2.44,0-.84-.51-2.49-3.34-2.49h-4.16v.26c1.36,0,1.36.36,1.36,1.58v5.92c0,1.22,0,1.58-1.36,1.58v.26h4.09v-.26c-1.36,0-1.36-.36-1.36-1.58v-2.64h.99l3.26,4.48h2.57Z"/>
    <path class="j" d="M154.87,79.51c0-1.22,0-1.58,1.36-1.58v-.26h-4.09v.26c1.36,0,1.36.36,1.36,1.58v5.92c0,1.22,0,1.58-1.36,1.58v.26h4.09v-.26c-1.36,0-1.36-.36-1.36-1.58v-5.92"/>
    <path class="f" d="M164.88,78.19h2.45c1.36,0,1.75.12,2.03,1.58h.29l-.13-2.1h-7.37v.26c1.36,0,1.36.36,1.36,1.58v5.92c0,1.22,0,1.58-1.36,1.58v.26h7.44l.81-2.41h-.28c-.75,1.29-1.22,1.89-2.49,1.89h-1.97c-.61,0-.78-.13-.78-.73v-3.51h1.93c1.17,0,1.56.15,1.68,1.42h.26v-3.35h-.26c-.09,1.29-.54,1.41-1.68,1.41h-1.93v-3.8"/>
    <path class="f" d="M181.68,83.52h-3.31l1.67-3.87,1.64,3.87M181.87,84.05l.52,1.2c.11.29.35.78.35,1.1,0,.51-.36.62-.99.65v.26h3.79v-.26c-1.07-.04-1.35-.86-1.71-1.73l-3.26-7.83h-.26l-3.45,8.09c-.44,1.02-.74,1.39-1.49,1.46v.26h3.02v-.26c-.54-.04-1.12-.1-1.12-.64,0-.28.2-.73.32-.97l.58-1.35h3.71Z"/>
    <path class="j" d="M194.65,77.45h-.25c-.06.3-.25.67-.57.67-.15,0-.3-.09-.42-.15-.68-.33-1.29-.51-2.05-.51-2.94,0-4.92,2.35-4.92,5.19s1.89,4.83,4.66,4.83c1.9,0,3.09-.84,3.97-2.47l-.22-.15c-.87,1.26-1.67,1.99-3.21,1.99-1.65,0-3.58-1-3.58-4.22s1.42-4.68,3.35-4.68c1.8,0,2.77,1.12,3.22,2.76h.22l-.22-3.26"/>
    <path class="j" d="M205.14,77.45h-.25c-.06.3-.25.67-.57.67-.15,0-.3-.09-.42-.15-.68-.33-1.29-.51-2.05-.51-2.94,0-4.92,2.35-4.92,5.19s1.89,4.83,4.66,4.83c1.9,0,3.09-.84,3.97-2.47l-.22-.15c-.87,1.26-1.67,1.99-3.21,1.99-1.65,0-3.58-1-3.58-4.22s1.42-4.68,3.35-4.68c1.8,0,2.77,1.12,3.22,2.76h.22l-.22-3.26"/>
    <path class="f" d="M209.91,78.19h2.45c1.36,0,1.75.12,2.03,1.58h.29l-.13-2.1h-7.37v.26c1.36,0,1.36.36,1.36,1.58v5.92c0,1.22,0,1.58-1.36,1.58v.26h7.44l.81-2.41h-.28c-.75,1.29-1.22,1.89-2.49,1.89h-1.97c-.61,0-.78-.13-.78-.73v-3.51h1.93c1.17,0,1.57.15,1.68,1.42h.26v-3.35h-.26c-.09,1.29-.54,1.41-1.68,1.41h-1.93v-3.8"/>
    <path class="j" d="M223.26,77.45h-.26c-.06.29-.15.55-.49.55-.19,0-.46-.15-.83-.28-.35-.15-.78-.28-1.31-.28-1.51,0-2.84,1.09-2.84,2.57,0,2.87,5.11,3.13,5.11,5.34,0,1.06-.94,1.57-1.91,1.57-.86,0-2.63-.41-2.84-2.73h-.26v3.29h.26c.03-.29.1-.54.44-.54s.64.13,1.03.26c.38.15.86.28,1.52.28,1.84,0,3.03-1.26,3.03-2.77,0-2.84-5.25-3.19-5.25-5.21,0-.87.84-1.49,1.67-1.49,1.6,0,2.58,1.23,2.68,2.76h.26v-3.32"/>
    <path class="j" d="M232.14,77.45h-.26c-.06.29-.14.55-.49.55-.19,0-.46-.15-.83-.28-.35-.15-.78-.28-1.31-.28-1.51,0-2.84,1.09-2.84,2.57,0,2.87,5.1,3.13,5.1,5.34,0,1.06-.94,1.57-1.91,1.57-.86,0-2.63-.41-2.84-2.73h-.26v3.29h.26c.03-.29.1-.54.44-.54s.64.13,1.03.26c.38.15.86.28,1.52.28,1.84,0,3.03-1.26,3.03-2.77,0-2.84-5.25-3.19-5.25-5.21,0-.87.84-1.49,1.67-1.49,1.6,0,2.58,1.23,2.68,2.76h.26v-3.32"/>
    <path class="f" d="M239.59,86.96c-2.38,0-3.07-2.34-3.07-4.5s.7-4.5,3.07-4.5,3.07,2.34,3.07,4.5-.7,4.5-3.07,4.5M239.59,87.48c2.86,0,4.7-2.34,4.7-5.02s-1.84-5.02-4.7-5.02-4.7,2.34-4.7,5.02,1.84,5.02,4.7,5.02Z"/>
    <path class="f" d="M248.65,78.32c.39-.06.78-.13,1.19-.13,1.17,0,1.96.87,1.96,2.03,0,1.61-1.45,2.1-2.83,2.1h-.32v-4M255.46,87.27v-.26c-1.32-.1-1.84-.81-2.55-1.8l-1.87-2.61c1.26-.26,2.38-1.04,2.38-2.44,0-.84-.51-2.49-3.34-2.49h-4.16v.26c1.36,0,1.36.36,1.36,1.58v5.92c0,1.22,0,1.58-1.36,1.58v.26h4.09v-.26c-1.36,0-1.36-.36-1.36-1.58v-2.64h.99l3.26,4.48h2.57Z"/>
    <path class="j" d="M259.23,79.51c0-1.22,0-1.58,1.36-1.58v-.26h-4.09v.26c1.36,0,1.36.36,1.36,1.58v5.92c0,1.22,0,1.58-1.36,1.58v.26h4.09v-.26c-1.36,0-1.36-.36-1.36-1.58v-5.92"/>
    <path class="f" d="M269.24,78.38c.32-.09.65-.13.99-.13,1.25,0,1.99.99,1.99,2.18,0,1.04-.65,2.07-1.6,2.07-.44,0-.97-.06-1.38-.15v-3.97M269.24,82.77c.54.12,1.07.22,1.61.22,2.57,0,2.99-1.89,2.99-2.64,0-1.42-1.15-2.68-3.41-2.68h-3.92v.26c1.36,0,1.36.36,1.36,1.58v5.92c0,1.22,0,1.58-1.36,1.58v.26h4.09v-.26c-1.36,0-1.36-.36-1.36-1.58v-2.65Z"/>
    <path class="f" d="M278.12,78.19h2.45c1.36,0,1.75.12,2.03,1.58h.29l-.13-2.1h-7.37v.26c1.36,0,1.36.36,1.36,1.58v5.92c0,1.22,0,1.58-1.36,1.58v.26h7.44l.81-2.41h-.28c-.75,1.29-1.22,1.89-2.49,1.89h-1.97c-.61,0-.78-.13-.78-.73v-3.51h1.93c1.17,0,1.56.15,1.68,1.42h.26v-3.35h-.26c-.09,1.29-.54,1.41-1.68,1.41h-1.93v-3.8"/>
    <path class="f" d="M287.8,78.32c.39-.06.78-.13,1.19-.13,1.17,0,1.96.87,1.96,2.03,0,1.61-1.45,2.1-2.83,2.1h-.32v-4M294.62,87.27v-.26c-1.32-.1-1.84-.81-2.55-1.8l-1.87-2.61c1.26-.26,2.38-1.04,2.38-2.44,0-.84-.51-2.49-3.34-2.49h-4.16v.26c1.36,0,1.36.36,1.36,1.58v5.92c0,1.22,0,1.58-1.36,1.58v.26h4.09v-.26c-1.36,0-1.36-.36-1.36-1.58v-2.64h.98l3.26,4.48h2.57Z"/>
    <path class="j" d="M302.75,79.65c0-1.31,0-1.73,1.61-1.73v-.26h-4.34v.26c1.36,0,1.36.36,1.36,1.58v5.92c0,1.22,0,1.58-1.36,1.58v.26h7.43l.83-2.61-.23-.04c-.61,1.55-1.33,2.03-2.49,2.03h-2.15c-.65,0-.65-.54-.65-1.26v-5.73"/>
    <path class="j" d="M308.18,81.12c1-.3,1.84-1.19,1.84-2.26,0-.67-.48-1.41-1.2-1.41-.51,0-.96.29-.96.83,0,.41.34.74.74.74.17,0,.35-.12.49-.12.22,0,.26.28.26.44,0,.74-.61,1.1-1.17,1.45v.33"/>
    <path class="j" d="M315.26,79.51c0-1.22,0-1.58,1.36-1.58v-.26h-4.09v.26c1.36,0,1.36.36,1.36,1.58v5.92c0,1.22,0,1.58-1.36,1.58v.26h4.09v-.26c-1.36,0-1.36-.36-1.36-1.58v-5.92"/>
    <path class="j" d="M320.17,79.71h.03l6.29,7.72h.26v-7.92c0-1.22,0-1.58,1.36-1.58v-.26h-3.35v.26c1.36,0,1.36.36,1.36,1.58v5.34h-.03l-5.85-7.18h-2.61v.26c.97,0,1.38.35,1.9,1v6.5c0,1.22,0,1.58-1.36,1.58v.26h3.35v-.26c-1.36,0-1.36-.36-1.36-1.58v-5.71"/>
    <path class="f" d="M332.12,78.39c.46-.13.96-.2,1.45-.2,2.52,0,3.86,1.9,3.86,4.28s-1.32,4.28-3.8,4.28c-.51,0-1.02-.07-1.51-.19v-8.17M330.75,85.42c0,1.22,0,1.58-1.36,1.58v.26h4.47c3.48,0,5.19-2.22,5.19-4.84,0-1.55-.61-3.07-1.93-3.96-1.13-.75-2.7-.8-4.02-.8h-3.71v.26c1.36,0,1.36.36,1.36,1.58v5.92Z"/>
    <path class="j" d="M341.9,83.83c0,1.9.7,3.65,3.77,3.65s3.7-1.96,3.7-3.7v-4.28c0-1.22,0-1.58,1.36-1.58v-.26h-3.35v.26c1.36,0,1.36.36,1.36,1.58v3.57c0,.78,0,1.91-.46,2.61-.55.81-1.6,1.17-2.54,1.17s-1.91-.44-2.25-1.39c-.17-.51-.23-1.57-.23-2.13v-3.83c0-1.22,0-1.58,1.36-1.58v-.26h-4.09v.26c1.36,0,1.36.36,1.36,1.58v4.32"/>
    <path class="j" d="M358.36,77.45h-.26c-.06.29-.14.55-.49.55-.19,0-.46-.15-.83-.28-.35-.15-.78-.28-1.31-.28-1.51,0-2.84,1.09-2.84,2.57,0,2.87,5.11,3.13,5.11,5.34,0,1.06-.94,1.57-1.91,1.57-.86,0-2.63-.41-2.84-2.73h-.26v3.29h.26c.03-.29.1-.54.44-.54s.64.13,1.03.26c.38.15.86.28,1.52.28,1.84,0,3.03-1.26,3.03-2.77,0-2.84-5.25-3.19-5.25-5.21,0-.87.84-1.49,1.67-1.49,1.59,0,2.58,1.23,2.68,2.76h.26v-3.32"/>
    <path class="j" d="M365.68,78.29h1.43c1.2,0,1.57.73,1.64,1.62h.27l-.1-2.25h-7.84l-.1,2.25h.27c.07-.9.44-1.62,1.64-1.62h1.43v7.14c0,1.22,0,1.58-1.36,1.58v.26h4.09v-.26c-1.36,0-1.36-.36-1.36-1.58v-7.14"/>
    <path class="f" d="M373.26,78.32c.39-.06.78-.13,1.19-.13,1.18,0,1.96.87,1.96,2.03,0,1.61-1.45,2.1-2.83,2.1h-.32v-4M380.07,87.27v-.26c-1.32-.1-1.84-.81-2.55-1.8l-1.87-2.61c1.26-.26,2.38-1.04,2.38-2.44,0-.84-.51-2.49-3.34-2.49h-4.16v.26c1.36,0,1.36.36,1.36,1.58v5.92c0,1.22,0,1.58-1.36,1.58v.26h4.09v-.26c-1.36,0-1.36-.36-1.36-1.58v-2.64h.98l3.26,4.48h2.57Z"/>
    <path class="j" d="M383.84,79.51c0-1.22,0-1.58,1.36-1.58v-.26h-4.09v.26c1.36,0,1.36.36,1.36,1.58v5.92c0,1.22,0,1.58-1.36,1.58v.26h4.09v-.26c-1.36,0-1.36-.36-1.36-1.58v-5.92"/>
    <path class="f" d="M392.87,83.52h-3.31l1.67-3.87,1.64,3.87M393.06,84.05l.52,1.2c.12.29.35.78.35,1.1,0,.51-.36.62-.99.65v.26h3.79v-.26c-1.07-.04-1.35-.86-1.71-1.73l-3.26-7.83h-.26l-3.45,8.09c-.44,1.02-.74,1.39-1.49,1.46v.26h3.02v-.26c-.54-.04-1.12-.1-1.12-.64,0-.28.2-.73.32-.97l.58-1.35h3.71Z"/>
    <path class="j" d="M410.87,77.45h-.25c-.06.3-.25.67-.57.67-.15,0-.3-.09-.42-.15-.68-.33-1.29-.51-2.05-.51-2.94,0-4.92,2.35-4.92,5.19s1.89,4.83,4.66,4.83c1.9,0,3.09-.84,3.97-2.47l-.22-.15c-.87,1.26-1.67,1.99-3.21,1.99-1.65,0-3.58-1-3.58-4.22s1.42-4.68,3.35-4.68c1.8,0,2.77,1.12,3.22,2.76h.22l-.22-3.26"/>
    <path class="f" d="M417.87,86.96c-2.38,0-3.07-2.34-3.07-4.5s.7-4.5,3.07-4.5,3.07,2.34,3.07,4.5-.7,4.5-3.07,4.5M417.87,87.48c2.86,0,4.7-2.34,4.7-5.02s-1.84-5.02-4.7-5.02-4.7,2.34-4.7,5.02,1.84,5.02,4.7,5.02Z"/>
    <path class="j" d="M426.27,79.71h.03l6.29,7.72h.26v-7.92c0-1.22,0-1.58,1.36-1.58v-.26h-3.35v.26c1.36,0,1.36.36,1.36,1.58v5.34h-.03l-5.85-7.18h-2.61v.26c.97,0,1.38.35,1.9,1v6.5c0,1.22,0,1.58-1.36,1.58v.26h3.35v-.26c-1.36,0-1.36-.36-1.36-1.58v-5.71"/>
    <path class="j" d="M443.95,77.45h-.25c-.06.3-.25.67-.57.67-.15,0-.3-.09-.42-.15-.68-.33-1.29-.51-2.05-.51-2.94,0-4.92,2.35-4.92,5.19s1.89,4.83,4.66,4.83c1.9,0,3.09-.84,3.97-2.47l-.22-.15c-.87,1.26-1.67,1.99-3.21,1.99-1.65,0-3.58-1-3.58-4.22s1.42-4.68,3.35-4.68c1.8,0,2.77,1.12,3.22,2.76h.22l-.22-3.26"/>
    <path class="j" d="M448.8,79.51c0-1.22,0-1.58,1.36-1.58v-.26h-4.09v.26c1.36,0,1.36.36,1.36,1.58v5.92c0,1.22,0,1.58-1.36,1.58v.26h4.09v-.26c-1.36,0-1.36-.36-1.36-1.58v-5.92"/>
    <path class="f" d="M457.83,83.52h-3.31l1.67-3.87,1.64,3.87M458.02,84.05l.52,1.2c.11.29.35.78.35,1.1,0,.51-.36.62-.99.65v.26h3.79v-.26c-1.07-.04-1.35-.86-1.71-1.73l-3.26-7.83h-.26l-3.45,8.09c-.44,1.02-.74,1.39-1.49,1.46v.26h3.02v-.26c-.54-.04-1.12-.1-1.12-.64,0-.28.2-.73.32-.97l.58-1.35h3.71Z"/>
    <path class="f" d="M465.65,78.32c.39-.06.78-.13,1.19-.13,1.17,0,1.96.87,1.96,2.03,0,1.61-1.45,2.1-2.83,2.1h-.32v-4M472.47,87.27v-.26c-1.32-.1-1.84-.81-2.55-1.8l-1.87-2.61c1.26-.26,2.38-1.04,2.38-2.44,0-.84-.51-2.49-3.34-2.49h-4.16v.26c1.36,0,1.36.36,1.36,1.58v5.92c0,1.22,0,1.58-1.36,1.58v.26h4.09v-.26c-1.36,0-1.36-.36-1.36-1.58v-2.64h.99l3.26,4.48h2.57Z"/>
    <path class="j" d="M476.23,79.51c0-1.22,0-1.58,1.36-1.58v-.26h-4.09v.26c1.36,0,1.36.36,1.36,1.58v5.92c0,1.22,0,1.58-1.36,1.58v.26h4.09v-.26c-1.36,0-1.36-.36-1.36-1.58v-5.92"/>
    <path class="f" d="M485.26,83.52h-3.31l1.67-3.87,1.64,3.87M485.45,84.05l.52,1.2c.12.29.35.78.35,1.1,0,.51-.36.62-.99.65v.26h3.79v-.26c-1.07-.04-1.35-.86-1.71-1.73l-3.26-7.83h-.26l-3.45,8.09c-.43,1.02-.74,1.39-1.49,1.46v.26h3.02v-.26c-.54-.04-1.12-.1-1.12-.64,0-.28.2-.73.32-.97l.58-1.35h3.71Z"/>
  </g>
</svg>