<svg id="Layer_1" xmlns="http://www.w3.org/2000/svg" viewBox="0 0 350 40"><style>.st0{fill-rule:evenodd;clip-rule:evenodd;fill:#3d815c}</style><path class="st0" d="M34.4 7.3h-2.3l-.8 1.5c-2.5-1.6-5-2.5-7.9-2.5C13.9 6.3 7 14.9 7 24c0 7.4 4.6 12.6 12.2 12.6 3.1 0 6.2-1.2 8.6-3.1l.5 1.9H33l1.3-7.4c.2-1.2.3-2.3 1.5-2.9.8-.4 1.6-.4 2.5-.5l.6-3.2H25.2l-.6 3.3c1.5.3 3.2.3 3.2 2.2 0 3.3-3.7 5.6-6.7 5.6-4.6 0-6.1-4-6.1-8 0-5.3 2.7-14.1 9.2-14.1 2 0 3.9.9 5.4 2.2 1.7 1.6 2.5 3.2 3.5 5.2l3.2-.2-1.9-10.3zm5.3 28h6.7l1-5.3c.6-2.5 1.2-6.4 2.4-8.6.5-1 1.6-2.4 2.8-2.4 1.2 0 1.7 1.6 3.9 1.6 2 0 4-1.2 4-3.4s-2.4-3.1-4.3-3.1c-2.5 0-5 1.4-6.5 3.4l-.1-.1.6-2.9H48c-2.4 1-5.3 1.2-7.9 1.4l-.6 3.5c1.1.1 2.9.2 2.9 1.4v.1l-2.7 14.4zm30.5-2.9c-2.3 0-3.2-1.7-3.2-3.7 0-2.1.8-5.4 1.7-7.3.9-2.1 2.1-3.6 4.6-3.6 2.4 0 3.3 1.6 3.3 3.7 0 2.2-.7 5.4-1.6 7.4-1.2 2-2.4 3.5-4.8 3.5zm-.2 3.8c8 0 13.7-5.9 13.7-13.8 0-2.6-1.2-5.2-3.4-6.6-1.9-1.3-4.7-1.8-7-1.8-3.7 0-7.3 1.2-9.9 3.9-2.3 2.5-3.7 6.2-3.7 9.5-.1 6.2 4.7 8.8 10.3 8.8zm26.9-14.5c-1.1-.4-2.2-.8-2.2-2.1 0-1.7 1.7-2.2 3.1-2.2 3.9 0 3 3.3 6.5 3.3 1.3 0 2.6-.8 2.6-2.3 0-3.5-6.8-4.4-9.4-4.4-2.4 0-5 .5-7 1.7-2.2 1.2-3.8 3.3-3.8 5.8 0 3.6 3.1 4.8 6.1 5.6l2 .6c1.1.3 3 .7 3 2.2 0 2-2.2 2.8-3.9 2.8-1.7 0-2.5-.7-3.5-1.9-1-1.1-2.1-1.9-3.6-1.9s-2.8 1-2.8 2.5c0 3.6 7.2 4.7 9.9 4.7s5.4-.5 7.8-1.8c2.2-1.1 4.4-3.5 4.4-6.1 0-3.5-2.7-4.5-5.5-5.4l-3.7-1.1zm22.9 0c-1.1-.4-2.2-.8-2.2-2.1 0-1.7 1.7-2.2 3.1-2.2 3.9 0 3 3.3 6.5 3.3 1.3 0 2.6-.8 2.6-2.3 0-3.5-6.8-4.4-9.4-4.4-2.4 0-5 .5-7 1.7-2.2 1.2-3.8 3.3-3.8 5.8 0 3.6 3.1 4.8 6.1 5.6l2 .6c1.1.3 3 .7 3 2.2 0 2-2.2 2.8-3.9 2.8-1.7 0-2.5-.7-3.5-1.9-1-1.1-2.1-1.9-3.6-1.9s-2.8 1-2.8 2.5c0 3.6 7.2 4.7 9.9 4.7s5.4-.5 7.8-1.8c2.2-1.1 4.4-3.5 4.4-6.1 0-3.5-2.7-4.5-5.5-5.4l-3.7-1.1zm21.5 10.7c-2.3 0-3.2-1.7-3.2-3.7 0-2.1.8-5.4 1.7-7.3.9-2.1 2.1-3.6 4.6-3.6 2.4 0 3.3 1.6 3.3 3.7 0 2.2-.7 5.4-1.6 7.4-1.1 2-2.4 3.5-4.8 3.5zm-.1 3.8c8 0 13.7-5.9 13.7-13.8 0-2.6-1.2-5.2-3.4-6.6-1.9-1.3-4.7-1.8-7-1.8-3.7 0-7.3 1.2-9.9 3.9-2.3 2.5-3.7 6.2-3.7 9.5-.1 6.2 4.7 8.8 10.3 8.8zM188 22.3h-7l5.2-9.2 1.8 9.2zm3.9-15h-6.4l-11.4 19.3c-1.8 3.1-2.4 4.8-6.5 5.6l-.6 3.1h12.2l.6-3.2c-.8-.1-3.3 0-3.3-1.2 0-.6.2-1 .5-1.5l2.1-4h9.4l1 5.2v.3c0 1.1-2.1 1.4-3.1 1.4h-.8l-.6 3h15l.6-3.2h-.5c-1.1-.3-2-.3-2.5-1.4-.3-.7-.7-2-.9-2.8l-4.8-20.6zm17.1 28l2.8-15.4c1.1-.9 2.8-1.4 4.2-1.4 1.3 0 2.8.6 2.8 1.9v.4l-2 11v.6c0 2.4 2.9 3.7 5.4 3.7 2.6 0 5-1.3 7-3l-1.7-2.3-.5.3c-.5.3-1 .5-1.6.5-.8 0-1.6-.6-1.6-1.4v-.3l2-11.1v-.7c0-2.8-3.4-4.2-6.2-4.2-2.3 0-5.3.9-6.9 2.5l-.1-.1.4-2.1h-2.3c-2.8 1-5.7 1.1-7.9 1.4l-.5 2.8c1.1 0 2.9.5 2.9 1.7 0 .1 0-.1 0 0l-2.8 15.1h6.6zm32.7-17h5.8l.7-4h-5.8l1.1-6h-3.9c-1.1 3-3.2 6.2-7.2 7.2l-.6 2.8h3L232.5 32v.6c0 2.6 3.1 3.6 5.6 3.6 3.4 0 6.7-1.5 9.2-3.9l-1.8-2.8c-.9.8-3.3 2.3-4.5 2.3-.9 0-1.6-.6-1.6-1.4v-.2l2.3-11.9zm17.4 14.1c-2.3 0-3.2-1.7-3.2-3.7 0-2.1.8-5.4 1.7-7.3.9-2.1 2.1-3.6 4.6-3.6 2.4 0 3.3 1.6 3.3 3.7 0 2.2-.7 5.4-1.6 7.4-1.1 2-2.4 3.5-4.8 3.5zm-.1 3.8c8 0 13.7-5.9 13.7-13.8 0-2.6-1.2-5.2-3.4-6.6-1.9-1.3-4.7-1.8-7-1.8-3.7 0-7.3 1.2-9.9 3.9-2.3 2.5-3.7 6.2-3.7 9.5-.1 6.2 4.7 8.8 10.3 8.8zm22.8-.9l2.8-15.4c1.1-.9 2.8-1.4 4.2-1.4 1.3 0 2.8.6 2.8 1.9v.4l-2 11v.6c0 2.4 2.9 3.7 5.4 3.7 2.6 0 5-1.3 7-3l-1.7-2.3-.5.3c-.5.3-1 .5-1.6.5-.8 0-1.6-.6-1.6-1.4v-.3l2-11.1v-.7c0-2.8-3.4-4.2-6.2-4.2-2.3 0-5.3.9-6.9 2.5l-.1-.1.4-2.1h-2.3c-2.8 1-5.7 1.1-7.9 1.4l-.5 2.8c1.1 0 2.9.5 2.9 1.7 0 .1 0-.1 0 0l-2.8 15.1h6.6zM311.5 12c2.7 0 5-2.2 5-4.9 0-1.9-1.7-3.2-3.5-3.2-2.4 0-4.9 2.2-4.9 4.6.1 1.9 1.4 3.5 3.4 3.5zm3.6 2.3h-2.2c-2.2 1-5.7 1.2-8.5 1.4l-.6 3.5c1 0 2 .3 2.7.7.4.3.8.6.8 1v.2l-2 10.8c0 .2-.1.4-.1.5 0 2.6 3.3 3.7 5.8 3.7 2.7 0 5.2-1.4 7.2-3.1l-1.8-2.4c-.7.5-1.4.9-2.3.9-.8 0-1.7-.7-1.7-1.5v-.2l2.7-15.5zm14.3 18.1c-2.3 0-3.2-1.7-3.2-3.7 0-2.1.8-5.4 1.7-7.3.9-2.1 2.1-3.6 4.6-3.6 2.4 0 3.3 1.6 3.3 3.7 0 2.2-.7 5.4-1.6 7.4-1.1 2-2.4 3.5-4.8 3.5zm-.1 3.8c8 0 13.7-5.9 13.7-13.8 0-2.6-1.2-5.2-3.4-6.6-1.9-1.3-4.7-1.8-7-1.8-3.7 0-7.3 1.2-9.9 3.9-2.3 2.5-3.7 6.2-3.7 9.5-.1 6.2 4.7 8.8 10.3 8.8z" id="Grosso_Antonio"/></svg>