<?xml version="1.0" encoding="UTF-8"?>
<svg id="a" data-name="Layer_1" xmlns="http://www.w3.org/2000/svg" viewBox="0 0 500 110">
  <defs>
    <style>
      .b {
        fill-rule: evenodd;
      }

      .b, .c {
        fill: #0f9143;
      }

      .d {
        fill: #664c38;
      }
    </style>
  </defs>
  <g>
    <path class="b" d="M49.11,15h-3.33l-1.15,2.16c-3.51-2.24-7.14-3.58-11.32-3.58-13.44,0-23.31,12.28-23.31,25.18,0,10.54,6.6,18.01,17.38,18.01,4.42,0,8.9-1.7,12.35-4.48l.73,2.72h6.6l1.88-10.55c.3-1.7.42-3.22,2.12-4.12,1.09-.61,2.3-.64,3.57-.7l.85-4.63h-19.55l-.91,4.72c2.18.36,4.6.36,4.6,3.21,0,4.78-5.33,7.93-9.63,7.93-6.6,0-8.78-5.66-8.78-11.41,0-7.63,3.81-20.18,13.14-20.18,2.91,0,5.63,1.33,7.75,3.2,2.48,2.24,3.51,4.6,5.03,7.44l4.6-.35-2.6-14.57Z"/>
    <path class="b" d="M56.73,55.01h9.56l1.45-7.64c.79-3.63,1.76-9.21,3.45-12.36.73-1.39,2.24-3.42,4.06-3.42s2.36,2.28,5.63,2.28c2.91,0,5.69-1.73,5.69-4.88s-3.45-4.47-6.18-4.47c-3.57,0-7.14,2.06-9.26,4.79l-.12-.12.79-4.18h-3.21c-3.45,1.43-7.51,1.76-11.26,1.94l-.91,4.97c1.57.12,4.12.24,4.12,2.06,0,.12-.06-.11-.06.07l-3.75,20.96Z"/>
    <path class="b" d="M100.2,50.87c-3.33,0-4.6-2.36-4.6-5.33s1.15-7.75,2.36-10.47c1.33-2.97,3.03-5.21,6.54-5.21s4.66,2.24,4.66,5.33-.97,7.69-2.3,10.59c-1.39,2.91-3.21,5.09-6.66,5.09ZM100.02,56.19c11.44,0,19.55-8.48,19.55-19.68,0-3.69-1.76-7.39-4.84-9.44-2.78-1.87-6.72-2.54-10.05-2.54-5.33,0-10.47,1.76-14.17,5.63-3.27,3.51-5.33,8.84-5.33,13.56,0,8.78,6.84,12.47,14.83,12.47Z"/>
    <path class="b" d="M138.39,35.61c-1.63-.54-3.15-1.09-3.15-3.03,0-2.36,2.36-3.21,4.36-3.21,5.57,0,4.3,4.66,9.26,4.66,1.88,0,3.75-1.21,3.75-3.27,0-5.02-9.69-6.24-13.38-6.24-3.39,0-7.08.73-10.05,2.42-3.09,1.7-5.39,4.72-5.39,8.3,0,5.21,4.42,6.9,8.66,8.05l2.84.85c1.63.48,4.24.97,4.24,3.15,0,2.91-3.09,3.94-5.51,3.94s-3.51-.97-5.03-2.67c-1.39-1.63-2.97-2.66-5.21-2.66s-3.94,1.39-3.94,3.63c0,5.21,10.23,6.66,14.11,6.66s7.75-.73,11.2-2.54c3.15-1.64,6.3-4.96,6.3-8.72,0-4.96-3.87-6.42-7.87-7.69l-5.21-1.64Z"/>
    <path class="b" d="M171.07,35.61c-1.63-.54-3.15-1.09-3.15-3.03,0-2.36,2.36-3.21,4.36-3.21,5.57,0,4.3,4.66,9.26,4.66,1.88,0,3.75-1.21,3.75-3.27,0-5.02-9.69-6.24-13.38-6.24-3.39,0-7.08.73-10.05,2.42-3.09,1.7-5.39,4.72-5.39,8.3,0,5.21,4.42,6.9,8.66,8.05l2.85.85c1.63.48,4.24.97,4.24,3.15,0,2.91-3.09,3.94-5.51,3.94s-3.51-.97-5.03-2.67c-1.39-1.63-2.97-2.66-5.21-2.66s-3.94,1.39-3.94,3.63c0,5.21,10.23,6.66,14.11,6.66s7.75-.73,11.2-2.54c3.15-1.64,6.3-4.96,6.3-8.72,0-4.96-3.87-6.42-7.87-7.69l-5.21-1.64Z"/>
    <path class="b" d="M201.87,50.87c-3.33,0-4.6-2.36-4.6-5.33s1.15-7.75,2.36-10.47c1.33-2.97,3.03-5.21,6.54-5.21s4.66,2.24,4.66,5.33-.97,7.69-2.3,10.59c-1.39,2.91-3.21,5.09-6.66,5.09ZM201.69,56.19c11.44,0,19.55-8.48,19.55-19.68,0-3.69-1.76-7.39-4.84-9.44-2.78-1.87-6.72-2.54-10.05-2.54-5.33,0-10.47,1.76-14.17,5.63-3.27,3.51-5.33,8.84-5.33,13.56,0,8.78,6.84,12.47,14.83,12.47Z"/>
    <path class="b" d="M268.51,36.43h-9.93l7.39-13.19,2.54,13.19ZM274.08,15h-9.08l-16.35,27.59c-2.54,4.42-3.45,6.84-9.26,7.93l-.85,4.49h17.5l.91-4.62c-1.21-.18-4.66.06-4.66-1.7,0-.85.3-1.47.67-2.2l3.03-5.77h13.44l1.39,7.49c.06.12.06.38.06.5,0,1.51-2.97,2.01-4.36,2.01h-1.09l-.91,4.29h21.37l.85-4.62-.73.06c-1.51-.36-2.91-.4-3.63-1.97-.48-1.03-1.03-2.9-1.27-4.05l-7.02-29.42Z"/>
    <path class="b" d="M298.53,55.01l4-22.05c1.51-1.27,3.94-1.94,5.93-1.94,1.88,0,3.94.87,3.94,2.69,0,.18,0,.41-.06.59l-2.91,15.76c-.06.3-.06.56-.06.86,0,3.39,4.18,5.27,7.69,5.27,3.75,0,7.2-1.81,9.99-4.3l-2.36-3.33-.67.43c-.67.48-1.39.73-2.24.73-1.21,0-2.3-.91-2.3-2,0-.12.06-.24.06-.36l2.85-15.86c.06-.36.06-.67.06-.97,0-4-4.84-5.99-8.9-5.99-3.33,0-7.51,1.33-9.93,3.57l-.12-.13.55-2.97h-3.27c-3.94,1.43-8.17,1.52-11.26,1.94l-.73,4c1.57,0,4.18.67,4.18,2.48,0,.12-.06-.11-.06.01l-3.94,21.57h9.57Z"/>
    <path class="b" d="M345.27,30.72h8.23l.97-5.72h-8.23l1.63-8.57h-5.51c-1.57,4.29-4.6,8.9-10.23,10.23l-.79,4.06h4.24l-3.39,19.58c-.06.3-.06.5-.06.8,0,3.69,4.42,5.12,8.05,5.12,4.9,0,9.57-2.19,13.08-5.52l-2.6-4.06c-1.33,1.09-4.71,3.27-6.41,3.27-1.27,0-2.29-.85-2.29-1.94v-.3l3.31-16.94Z"/>
    <path class="b" d="M370.15,50.87c-3.33,0-4.6-2.36-4.6-5.33s1.15-7.75,2.36-10.47c1.33-2.97,3.03-5.21,6.54-5.21s4.66,2.24,4.66,5.33-.97,7.69-2.3,10.59c-1.39,2.91-3.21,5.09-6.66,5.09ZM369.97,56.19c11.44,0,19.55-8.48,19.55-19.68,0-3.69-1.76-7.39-4.84-9.44-2.78-1.87-6.72-2.54-10.05-2.54-5.33,0-10.47,1.76-14.17,5.63-3.27,3.51-5.33,8.84-5.33,13.56,0,8.78,6.84,12.47,14.83,12.47Z"/>
    <path class="b" d="M402.65,55.01l4-22.05c1.51-1.27,3.94-1.94,5.93-1.94,1.88,0,3.94.87,3.94,2.69,0,.18,0,.41-.06.59l-2.91,15.76c-.06.3-.06.56-.06.86,0,3.39,4.18,5.27,7.69,5.27,3.75,0,7.2-1.81,9.99-4.3l-2.36-3.33-.67.43c-.67.48-1.39.73-2.24.73-1.21,0-2.3-.91-2.3-2,0-.12.06-.24.06-.36l2.84-15.86c.06-.36.06-.67.06-.97,0-4-4.84-5.99-8.9-5.99-3.33,0-7.51,1.33-9.93,3.57l-.12-.13.55-2.97h-3.27c-3.94,1.43-8.17,1.52-11.26,1.94l-.73,4c1.57,0,4.18.67,4.18,2.48,0,.12-.06-.11-.06.01l-3.94,21.57h9.57Z"/>
    <path class="b" d="M445.08,21.62c3.81,0,7.2-3.21,7.2-7.02,0-2.67-2.36-4.6-4.96-4.6-3.39,0-7.02,3.15-7.02,6.6,0,2.84,1.82,5.02,4.78,5.02ZM450.17,25h-3.15c-3.09,1.43-8.17,1.76-12.17,1.94l-.79,4.97c1.45,0,2.86.37,3.89.97.61.42,1.16.85,1.16,1.45v.3l-2.92,15.5c-.06.3-.19.54-.19.79,0,3.75,4.72,5.27,8.23,5.27,3.87,0,7.47-1.94,10.26-4.42l-2.56-3.39c-1.03.67-2.03,1.33-3.3,1.33s-2.39-.97-2.39-2.18v-.24l3.91-22.29Z"/>
    <path class="b" d="M470.63,50.87c-3.33,0-4.6-2.36-4.6-5.33s1.15-7.75,2.36-10.47c1.33-2.97,3.03-5.21,6.54-5.21s4.66,2.24,4.66,5.33-.97,7.69-2.3,10.59c-1.39,2.91-3.21,5.09-6.66,5.09ZM470.45,56.19c11.44,0,19.55-8.48,19.55-19.68,0-3.69-1.76-7.39-4.84-9.44-2.78-1.87-6.72-2.54-10.05-2.54-5.33,0-10.47,1.76-14.17,5.63-3.27,3.51-5.33,8.84-5.33,13.56,0,8.78,6.84,12.47,14.83,12.47Z"/>
  </g>
  <rect class="c" x="10" y="66" width="480" height="3"/>
  <rect class="c" x="10" y="97" width="480" height="3"/>
  <g>
    <path class="d" d="M17.4,76.01l.09,4.46h-.35c-.17-1.12-.58-2.02-1.23-2.7-.65-.68-1.36-1.02-2.12-1.02-.59,0-1.05.18-1.4.54-.34.36-.51.77-.51,1.24,0,.3.06.56.18.79.17.31.43.61.8.92.27.22.9.6,1.88,1.15,1.37.77,2.3,1.49,2.78,2.18.47.68.71,1.47.71,2.35,0,1.12-.38,2.08-1.15,2.88-.76.8-1.73,1.21-2.91,1.21-.37,0-.72-.04-1.05-.13s-.74-.25-1.24-.48c-.28-.13-.5-.2-.68-.2-.15,0-.31.07-.48.2-.17.13-.3.33-.41.6h-.32v-5.05h.32c.25,1.42.74,2.5,1.47,3.25s1.5,1.12,2.34,1.12c.65,0,1.16-.2,1.54-.6.38-.4.57-.87.57-1.4,0-.32-.07-.62-.22-.92-.15-.3-.37-.58-.67-.84-.3-.27-.83-.61-1.59-1.04-1.07-.6-1.83-1.11-2.3-1.53-.47-.42-.83-.89-1.08-1.41-.25-.52-.38-1.09-.38-1.72,0-1.06.34-1.97,1.03-2.72.69-.75,1.55-1.12,2.59-1.12.38,0,.75.05,1.11.16.27.08.6.23.99.44.39.21.66.32.82.32s.27-.05.35-.16c.09-.1.17-.36.24-.76h.26Z"/>
    <path class="d" d="M23.76,77.08v5.44h.23c.74,0,1.28-.27,1.62-.8.33-.53.55-1.32.64-2.36h.33v7h-.33c-.07-.76-.21-1.39-.44-1.87-.22-.49-.48-.81-.77-.98-.29-.17-.72-.25-1.28-.25v3.77c0,.74.03,1.19.08,1.35s.16.3.31.4c.15.11.39.16.73.16h.7c1.09,0,1.97-.29,2.63-.87s1.13-1.46,1.42-2.64h.32l-.53,4.25h-10.14v-.36h.39c.34,0,.61-.07.82-.21.15-.09.27-.25.35-.47.06-.16.09-.57.09-1.24v-8.79c0-.6-.01-.98-.04-1.11-.06-.23-.16-.41-.32-.53-.22-.18-.52-.28-.9-.28h-.39v-.36h9.82v3.95h-.33c-.17-.97-.4-1.66-.7-2.08-.3-.42-.73-.73-1.28-.93-.32-.12-.93-.18-1.82-.18h-1.21Z"/>
    <path class="d" d="M35.45,83.59v3.75c0,.72.04,1.18.12,1.37s.21.34.41.45c.2.11.56.17,1.1.17v.36h-6v-.36c.54,0,.91-.06,1.1-.17s.33-.26.41-.45c.08-.18.12-.64.12-1.36v-8.68c0-.72-.04-1.18-.12-1.37-.08-.19-.21-.34-.41-.45-.2-.11-.56-.17-1.1-.17v-.36h5.45c1.42,0,2.46.11,3.11.34.66.22,1.19.64,1.61,1.24.42.6.62,1.31.62,2.11,0,.99-.31,1.8-.93,2.45-.4.41-.95.71-1.67.92l2.82,4.53c.37.59.63.95.79,1.09.24.2.51.32.82.33v.36h-3.69l-3.78-6.09h-.77ZM35.45,77.04v5.86h.49c.8,0,1.4-.08,1.8-.25.4-.17.71-.47.94-.91.23-.44.34-1.01.34-1.71,0-1.02-.21-1.77-.63-2.26-.42-.49-1.09-.73-2.02-.73h-.93Z"/>
    <path class="d" d="M55.52,76.32v.36c-.43.08-.81.34-1.14.78-.24.33-.6,1.1-1.08,2.32l-4.04,10.21h-.29l-4.02-10.63c-.48-1.28-.81-2.03-.97-2.26s-.47-.36-.93-.42v-.36h5.62v.36h-.19c-.51,0-.85.07-1.04.22-.13.1-.2.24-.2.43,0,.12.02.26.07.42.05.16.2.59.47,1.3l2.5,6.66,2.32-5.93c.28-.72.45-1.2.51-1.44.06-.24.09-.45.09-.62,0-.2-.05-.37-.14-.52-.09-.15-.23-.27-.41-.34-.25-.11-.58-.17-.99-.17v-.36h3.85Z"/>
    <path class="d" d="M62.19,89.32v.36h-6.13v-.36h.39c.34,0,.61-.07.82-.21.15-.09.27-.25.35-.47.06-.16.09-.57.09-1.24v-8.79c0-.68-.03-1.11-.09-1.28-.06-.17-.19-.32-.39-.45-.19-.13-.45-.19-.78-.19h-.39v-.36h6.13v.36h-.39c-.34,0-.61.07-.82.21-.15.09-.27.25-.35.47-.06.16-.1.57-.1,1.24v8.79c0,.68.03,1.11.1,1.28.07.17.2.32.39.45.19.13.45.19.78.19h.39Z"/>
    <path class="d" d="M73.4,76.32l-6.89,12.62h2.23c1.06,0,1.79-.07,2.21-.23.69-.24,1.28-.67,1.77-1.31.5-.63.84-1.48,1.03-2.55h.34l-.48,4.83h-10.74l6.9-12.64h-1.74c-.67,0-1.12.02-1.33.07-.4.09-.78.26-1.14.51-.35.25-.65.59-.88,1.01-.23.42-.42.95-.55,1.6h-.32l.32-3.91h9.26Z"/>
    <path class="d" d="M80.89,89.32v.36h-6.13v-.36h.39c.34,0,.61-.07.82-.21.15-.09.27-.25.35-.47.06-.16.09-.57.09-1.24v-8.79c0-.68-.03-1.11-.09-1.28-.06-.17-.19-.32-.39-.45-.19-.13-.45-.19-.78-.19h-.39v-.36h6.13v.36h-.39c-.34,0-.61.07-.82.21-.15.09-.27.25-.35.47-.06.16-.1.57-.1,1.24v8.79c0,.68.03,1.11.1,1.28.07.17.2.32.39.45.19.13.45.19.78.19h.39Z"/>
    <path class="d" d="M90.55,77.08v5.44h.23c.74,0,1.28-.27,1.62-.8.33-.53.55-1.32.64-2.36h.33v7h-.33c-.07-.76-.21-1.39-.44-1.87-.22-.49-.48-.81-.77-.98-.29-.17-.72-.25-1.28-.25v3.77c0,.74.03,1.19.08,1.35s.16.3.31.4c.15.11.39.16.73.16h.7c1.09,0,1.97-.29,2.63-.87s1.13-1.46,1.42-2.64h.32l-.53,4.25h-10.14v-.36h.39c.34,0,.61-.07.82-.21.15-.09.27-.25.35-.47.06-.16.09-.57.09-1.24v-8.79c0-.6-.01-.98-.04-1.11-.06-.23-.16-.41-.32-.53-.22-.18-.52-.28-.9-.28h-.39v-.36h9.82v3.95h-.33c-.17-.97-.4-1.66-.7-2.08-.3-.42-.73-.73-1.28-.93-.32-.12-.93-.18-1.82-.18h-1.21Z"/>
    <path class="d" d="M112.82,76.32v3.62h-.31c-.18-.84-.39-1.43-.61-1.8-.23-.36-.53-.66-.93-.87-.22-.12-.6-.18-1.15-.18h-.87v10.31c0,.68.03,1.11.1,1.28.07.17.2.32.39.45.19.13.46.19.79.19h.39v.36h-6.14v-.36h.39c.34,0,.61-.07.82-.21.15-.09.27-.25.35-.47.06-.16.09-.57.09-1.24v-10.31h-.85c-.79,0-1.36.19-1.72.57-.5.53-.82,1.29-.95,2.28h-.33v-3.62h10.53Z"/>
    <path class="d" d="M118.28,77.08v5.44h.23c.74,0,1.28-.27,1.62-.8.33-.53.55-1.32.64-2.36h.33v7h-.33c-.07-.76-.21-1.39-.44-1.87-.22-.49-.48-.81-.77-.98-.29-.17-.72-.25-1.28-.25v3.77c0,.74.03,1.19.08,1.35s.16.3.31.4c.15.11.39.16.73.16h.7c1.09,0,1.97-.29,2.63-.87s1.13-1.46,1.42-2.64h.32l-.53,4.25h-10.14v-.36h.39c.34,0,.61-.07.82-.21.15-.09.27-.25.35-.47.06-.16.09-.57.09-1.24v-8.79c0-.6-.01-.98-.04-1.11-.06-.23-.16-.41-.32-.53-.22-.18-.52-.28-.9-.28h-.39v-.36h9.82v3.95h-.33c-.17-.97-.4-1.66-.7-2.08-.3-.42-.73-.73-1.28-.93-.32-.12-.93-.18-1.82-.18h-1.21Z"/>
    <path class="d" d="M137.09,76.01v4.63h-.34c-.25-1.21-.73-2.14-1.42-2.78-.69-.64-1.48-.97-2.35-.97-.73,0-1.4.24-2.01.72-.61.48-1.06,1.11-1.34,1.88-.36.99-.54,2.1-.54,3.31s.13,2.29.4,3.27.68,1.73,1.25,2.23c.57.5,1.3.75,2.2.75.74,0,1.41-.18,2.03-.55.61-.37,1.26-1,1.94-1.9v1.15c-.66.78-1.34,1.35-2.05,1.7-.71.35-1.54.53-2.49.53-1.25,0-2.36-.29-3.33-.86-.97-.57-1.72-1.39-2.25-2.46-.53-1.07-.79-2.21-.79-3.42,0-1.28.29-2.48.88-3.63.59-1.14,1.38-2.03,2.37-2.66.99-.63,2.05-.95,3.17-.95.82,0,1.69.2,2.61.61.53.24.87.35,1.01.35.18,0,.34-.08.48-.23s.22-.4.26-.73h.34Z"/>
    <path class="d" d="M142.47,76.32l5.79,8.29v-5.75c0-.8-.1-1.34-.3-1.63-.28-.38-.74-.57-1.39-.55v-.36h3.87v.36c-.5.07-.83.17-1,.28-.17.12-.3.3-.4.56-.09.26-.14.7-.14,1.34v11.13h-.29l-7.93-11.13v8.5c0,.77.15,1.29.46,1.56.31.27.66.4,1.06.4h.28v.36h-4.16v-.36c.65,0,1.09-.16,1.35-.45s.38-.8.38-1.51v-9.44l-.25-.36c-.25-.35-.47-.59-.66-.7s-.46-.17-.82-.19v-.36h4.16Z"/>
    <path class="d" d="M157.69,76.13c1.87-.08,3.39.54,4.55,1.86,1.17,1.32,1.75,2.97,1.75,4.96,0,1.7-.44,3.19-1.31,4.48-1.15,1.71-2.78,2.56-4.89,2.56s-3.74-.81-4.89-2.44c-.91-1.29-1.37-2.82-1.37-4.59,0-1.98.59-3.64,1.78-4.96,1.18-1.32,2.64-1.95,4.37-1.87ZM157.8,76.76c-1.07,0-1.89.62-2.45,1.87-.46,1.03-.68,2.5-.68,4.42,0,2.28.35,3.97,1.06,5.06.49.76,1.18,1.14,2.06,1.14.59,0,1.09-.16,1.49-.49.51-.42.9-1.09,1.18-2.02.28-.92.42-2.13.42-3.61,0-1.77-.14-3.09-.43-3.97-.29-.88-.66-1.5-1.1-1.86-.45-.36-.96-.54-1.54-.54Z"/>
    <path class="d" d="M175.81,84.99l-.44,4.69h-10.41v-.36h.39c.34,0,.61-.07.82-.21.15-.09.27-.25.35-.47.06-.16.1-.57.1-1.24v-8.79c0-.68-.03-1.11-.1-1.28-.06-.17-.19-.32-.38-.45-.19-.13-.45-.19-.78-.19h-.39v-.36h6.25v.36h-.51c-.34,0-.61.07-.82.21-.15.09-.27.25-.35.47-.06.16-.1.57-.1,1.24v8.52c0,.68.03,1.12.1,1.31.07.19.2.33.41.42.14.06.49.09,1.05.09h.98c.62,0,1.14-.12,1.56-.37.42-.25.77-.64,1.08-1.18s.59-1.33.86-2.39h.35Z"/>
    <path class="d" d="M183.28,76.13c1.87-.08,3.39.54,4.55,1.86,1.17,1.32,1.75,2.97,1.75,4.96,0,1.7-.44,3.19-1.31,4.48-1.15,1.71-2.78,2.56-4.89,2.56s-3.74-.81-4.89-2.44c-.91-1.29-1.37-2.82-1.37-4.59,0-1.98.59-3.64,1.78-4.96,1.18-1.32,2.64-1.95,4.37-1.87ZM183.38,76.76c-1.07,0-1.89.62-2.45,1.87-.46,1.03-.68,2.5-.68,4.42,0,2.28.35,3.97,1.06,5.06.49.76,1.18,1.14,2.06,1.14.59,0,1.09-.16,1.49-.49.51-.42.9-1.09,1.18-2.02.28-.92.42-2.13.42-3.61,0-1.77-.14-3.09-.43-3.97-.29-.88-.66-1.5-1.1-1.86-.45-.36-.96-.54-1.54-.54Z"/>
    <path class="d" d="M202.43,76.01v4.71h-.32c-.39-1.29-.97-2.27-1.74-2.94-.77-.67-1.62-1.01-2.53-1.01s-1.61.28-2.19.84c-.58.56-.99,1.35-1.24,2.35s-.36,2.04-.36,3.1c0,1.28.13,2.41.4,3.37.27.97.69,1.68,1.28,2.13.59.45,1.29.68,2.11.68.28,0,.57-.03.87-.1s.6-.17.91-.3v-2.78c0-.53-.03-.87-.09-1.02-.06-.15-.19-.29-.39-.42-.2-.12-.44-.19-.72-.19h-.3v-.36h5.7v.36c-.43.03-.73.1-.9.2-.17.1-.3.27-.39.51-.05.12-.08.43-.08.92v2.78c-.75.38-1.53.67-2.34.86-.81.19-1.65.29-2.52.29-1.11,0-2.04-.17-2.77-.52-.73-.35-1.38-.8-1.95-1.36s-1-1.19-1.32-1.9c-.4-.91-.61-1.92-.61-3.05,0-2.01.62-3.71,1.86-5.1,1.24-1.39,2.8-2.08,4.68-2.08.58,0,1.11.05,1.57.16.25.05.66.2,1.23.45.57.25.9.37,1.01.37.16,0,.31-.07.45-.2s.27-.39.38-.76h.32Z"/>
    <path class="d" d="M210.48,89.32v.36h-6.13v-.36h.39c.34,0,.61-.07.82-.21.15-.09.27-.25.35-.47.06-.16.09-.57.09-1.24v-8.79c0-.68-.03-1.11-.09-1.28-.06-.17-.19-.32-.39-.45-.19-.13-.45-.19-.78-.19h-.39v-.36h6.13v.36h-.39c-.34,0-.61.07-.82.21-.15.09-.27.25-.35.47-.06.16-.1.57-.1,1.24v8.79c0,.68.03,1.11.1,1.28.07.17.2.32.39.45.19.13.45.19.78.19h.39Z"/>
    <path class="d" d="M215.71,77.08v5.44h.23c.74,0,1.28-.27,1.62-.8.33-.53.55-1.32.64-2.36h.33v7h-.33c-.07-.76-.21-1.39-.44-1.87-.22-.49-.48-.81-.77-.98-.29-.17-.72-.25-1.28-.25v3.77c0,.74.03,1.19.08,1.35s.16.3.31.4c.15.11.39.16.73.16h.7c1.09,0,1.97-.29,2.63-.87s1.13-1.46,1.42-2.64h.32l-.53,4.25h-10.14v-.36h.39c.34,0,.61-.07.82-.21.15-.09.27-.25.35-.47.06-.16.09-.57.09-1.24v-8.79c0-.6-.01-.98-.04-1.11-.06-.23-.16-.41-.32-.53-.22-.18-.52-.28-.9-.28h-.39v-.36h9.82v3.95h-.33c-.17-.97-.4-1.66-.7-2.08-.3-.42-.73-.73-1.28-.93-.32-.12-.93-.18-1.82-.18h-1.21Z"/>
    <path class="d" d="M231.9,83.63v3.71c0,.72.04,1.18.12,1.37s.22.34.41.45c.2.11.56.17,1.09.17v.36h-5.96v-.36c.54,0,.91-.06,1.1-.17s.33-.26.41-.45c.08-.18.12-.64.12-1.36v-8.68c0-.72-.04-1.18-.12-1.37-.08-.19-.21-.34-.41-.45s-.56-.17-1.1-.17v-.36h5.11c1.68,0,2.89.34,3.62,1.03.73.68,1.1,1.54,1.1,2.56,0,.87-.24,1.61-.71,2.23-.47.62-1.12,1.04-1.95,1.26-.56.16-1.5.24-2.84.24ZM231.9,77.08v5.78c.19.01.33.02.43.02.7,0,1.25-.24,1.63-.71s.57-1.21.57-2.21-.19-1.72-.57-2.18c-.38-.46-.95-.69-1.7-.69h-.35Z"/>
    <path class="d" d="M242.77,77.08v5.44h.23c.74,0,1.28-.27,1.62-.8.33-.53.55-1.32.64-2.36h.33v7h-.33c-.07-.76-.21-1.39-.44-1.87-.22-.49-.48-.81-.77-.98-.29-.17-.72-.25-1.28-.25v3.77c0,.74.03,1.19.08,1.35s.16.3.31.4c.15.11.39.16.73.16h.7c1.09,0,1.97-.29,2.63-.87s1.13-1.46,1.42-2.64h.32l-.53,4.25h-10.14v-.36h.39c.34,0,.61-.07.82-.21.15-.09.27-.25.35-.47.06-.16.09-.57.09-1.24v-8.79c0-.6-.01-.98-.04-1.11-.06-.23-.16-.41-.32-.53-.22-.18-.52-.28-.9-.28h-.39v-.36h9.82v3.95h-.33c-.17-.97-.4-1.66-.7-2.08-.3-.42-.73-.73-1.28-.93-.32-.12-.93-.18-1.82-.18h-1.21Z"/>
    <path class="d" d="M254.46,83.59v3.75c0,.72.04,1.18.12,1.37s.21.34.41.45c.2.11.56.17,1.1.17v.36h-6v-.36c.54,0,.91-.06,1.1-.17s.33-.26.41-.45c.08-.18.12-.64.12-1.36v-8.68c0-.72-.04-1.18-.12-1.37-.08-.19-.21-.34-.41-.45-.2-.11-.56-.17-1.1-.17v-.36h5.45c1.42,0,2.46.11,3.11.34.66.22,1.19.64,1.61,1.24.42.6.62,1.31.62,2.11,0,.99-.31,1.8-.93,2.45-.4.41-.95.71-1.67.92l2.82,4.53c.37.59.63.95.79,1.09.24.2.51.32.82.33v.36h-3.69l-3.78-6.09h-.77ZM254.46,77.04v5.86h.49c.8,0,1.4-.08,1.8-.25.4-.17.71-.47.94-.91.23-.44.34-1.01.34-1.71,0-1.02-.21-1.77-.63-2.26-.42-.49-1.09-.73-2.02-.73h-.93Z"/>
    <path class="d" d="M278.15,84.99l-.44,4.69h-10.41v-.36h.39c.34,0,.61-.07.82-.21.15-.09.27-.25.35-.47.06-.16.1-.57.1-1.24v-8.79c0-.68-.03-1.11-.1-1.28-.06-.17-.19-.32-.38-.45-.19-.13-.45-.19-.78-.19h-.39v-.36h6.25v.36h-.51c-.34,0-.61.07-.82.21-.15.09-.27.25-.35.47-.06.16-.1.57-.1,1.24v8.52c0,.68.03,1.12.1,1.31.07.19.2.33.41.42.14.06.49.09,1.05.09h.98c.62,0,1.14-.12,1.56-.37.42-.25.77-.64,1.08-1.18s.59-1.33.86-2.39h.35Z"/>
    <path class="d" d="M278.78,82.58v-.43c.67-.33,1.15-.75,1.46-1.28.3-.52.45-1.06.45-1.61,0-.1-.02-.19-.06-.25-.04-.05-.08-.08-.12-.08-.03,0-.09.02-.16.07-.17.11-.37.17-.62.17-.34,0-.64-.15-.89-.45-.25-.3-.38-.66-.38-1.06,0-.43.14-.82.43-1.14.29-.33.64-.49,1.05-.49.5,0,.92.22,1.27.66.35.44.53,1.04.53,1.8,0,.94-.25,1.77-.75,2.5-.5.73-1.24,1.27-2.22,1.61Z"/>
    <path class="d" d="M289.54,89.32v.36h-6.13v-.36h.39c.34,0,.61-.07.82-.21.15-.09.27-.25.35-.47.06-.16.09-.57.09-1.24v-8.79c0-.68-.03-1.11-.09-1.28-.06-.17-.19-.32-.39-.45-.19-.13-.45-.19-.78-.19h-.39v-.36h6.13v.36h-.39c-.34,0-.61.07-.82.21-.15.09-.27.25-.35.47-.06.16-.1.57-.1,1.24v8.79c0,.68.03,1.11.1,1.28.07.17.2.32.39.45.19.13.45.19.78.19h.39Z"/>
    <path class="d" d="M294.36,76.32l5.79,8.29v-5.75c0-.8-.1-1.34-.3-1.63-.28-.38-.74-.57-1.39-.55v-.36h3.87v.36c-.5.07-.83.17-1,.28-.17.12-.3.3-.4.56-.09.26-.14.7-.14,1.34v11.13h-.29l-7.93-11.13v8.5c0,.77.15,1.29.46,1.56.31.27.66.4,1.06.4h.28v.36h-4.16v-.36c.65,0,1.09-.16,1.35-.45s.38-.8.38-1.51v-9.44l-.25-.36c-.25-.35-.47-.59-.66-.7s-.46-.17-.82-.19v-.36h4.16Z"/>
    <path class="d" d="M302.97,89.68v-.36h.39c.34,0,.6-.06.78-.18.18-.12.32-.29.4-.5.05-.14.08-.55.08-1.24v-8.79c0-.68-.03-1.11-.09-1.28-.06-.17-.19-.32-.39-.45-.19-.13-.45-.19-.78-.19h-.39v-.36h5.25c1.4,0,2.53.22,3.38.65,1.04.53,1.84,1.34,2.37,2.42.54,1.08.81,2.3.81,3.66,0,.94-.13,1.81-.4,2.6-.27.79-.61,1.45-1.03,1.96-.42.52-.91.93-1.46,1.24-.55.31-1.22.55-2.02.72-.35.08-.91.12-1.66.12h-5.25ZM307.44,77.07v10.43c0,.55.02.89.07,1.02.05.12.12.22.23.29.16.1.38.15.67.15.96,0,1.7-.37,2.21-1.12.69-1.01,1.04-2.58,1.04-4.71,0-1.72-.24-3.09-.71-4.11-.38-.8-.86-1.35-1.44-1.64-.42-.2-1.1-.3-2.07-.3Z"/>
    <path class="d" d="M315.94,76.32h6.05v.36h-.3c-.46,0-.77.05-.94.16-.17.11-.29.26-.36.45s-.11.67-.11,1.43v6.55c0,1.2.08,1.99.24,2.38.16.39.42.71.78.97.36.26.82.38,1.37.38.63,0,1.17-.16,1.62-.49.45-.33.78-.77,1-1.35s.33-1.57.33-2.99v-5.45c0-.6-.05-1.03-.16-1.28-.11-.26-.25-.43-.42-.53-.26-.15-.63-.23-1.1-.23v-.36h4.06v.36h-.24c-.33,0-.6.08-.82.23-.22.15-.38.38-.48.68-.07.21-.11.59-.11,1.13v5.08c0,1.57-.09,2.7-.27,3.4s-.62,1.34-1.33,1.92c-.7.59-1.66.88-2.88.88-1.01,0-1.8-.16-2.35-.46-.76-.42-1.29-.96-1.6-1.62-.31-.66-.47-1.54-.47-2.65v-6.55c0-.77-.04-1.25-.11-1.43-.08-.19-.2-.34-.39-.45s-.52-.16-1.02-.16v-.36Z"/>
    <path class="d" d="M336.64,76.01l.09,4.46h-.35c-.17-1.12-.58-2.02-1.23-2.7-.65-.68-1.36-1.02-2.12-1.02-.59,0-1.05.18-1.4.54-.34.36-.51.77-.51,1.24,0,.3.06.56.18.79.17.31.43.61.8.92.27.22.9.6,1.88,1.15,1.37.77,2.3,1.49,2.78,2.18.47.68.71,1.47.71,2.35,0,1.12-.38,2.08-1.15,2.88-.76.8-1.73,1.21-2.91,1.21-.37,0-.72-.04-1.05-.13s-.74-.25-1.24-.48c-.28-.13-.5-.2-.68-.2-.15,0-.31.07-.48.2-.17.13-.3.33-.41.6h-.32v-5.05h.32c.25,1.42.74,2.5,1.47,3.25s1.5,1.12,2.34,1.12c.65,0,1.16-.2,1.54-.6.38-.4.57-.87.57-1.4,0-.32-.07-.62-.22-.92-.15-.3-.37-.58-.67-.84-.3-.27-.83-.61-1.59-1.04-1.07-.6-1.83-1.11-2.3-1.53-.47-.42-.83-.89-1.08-1.41-.25-.52-.38-1.09-.38-1.72,0-1.06.34-1.97,1.03-2.72.69-.75,1.55-1.12,2.59-1.12.38,0,.75.05,1.11.16.27.08.6.23.99.44.39.21.66.32.82.32s.27-.05.35-.16c.09-.1.17-.36.24-.76h.26Z"/>
    <path class="d" d="M349.34,76.32v3.62h-.31c-.18-.84-.39-1.43-.61-1.8-.23-.36-.53-.66-.93-.87-.22-.12-.6-.18-1.15-.18h-.87v10.31c0,.68.03,1.11.1,1.28.07.17.2.32.39.45.19.13.46.19.79.19h.39v.36h-6.14v-.36h.39c.34,0,.61-.07.82-.21.15-.09.27-.25.35-.47.06-.16.09-.57.09-1.24v-10.31h-.85c-.79,0-1.36.19-1.72.57-.5.53-.82,1.29-.95,2.28h-.33v-3.62h10.53Z"/>
    <path class="d" d="M354.68,83.59v3.75c0,.72.04,1.18.12,1.37s.21.34.41.45c.2.11.56.17,1.1.17v.36h-6v-.36c.54,0,.91-.06,1.1-.17s.33-.26.41-.45c.08-.18.12-.64.12-1.36v-8.68c0-.72-.04-1.18-.12-1.37-.08-.19-.21-.34-.41-.45-.2-.11-.56-.17-1.1-.17v-.36h5.45c1.42,0,2.46.11,3.11.34.66.22,1.19.64,1.61,1.24.42.6.62,1.31.62,2.11,0,.99-.31,1.8-.93,2.45-.4.41-.95.71-1.67.92l2.82,4.53c.37.59.63.95.79,1.09.24.2.51.32.82.33v.36h-3.69l-3.78-6.09h-.77ZM354.68,77.04v5.86h.49c.8,0,1.4-.08,1.8-.25.4-.17.71-.47.94-.91.23-.44.34-1.01.34-1.71,0-1.02-.21-1.77-.63-2.26-.42-.49-1.09-.73-2.02-.73h-.93Z"/>
    <path class="d" d="M369.25,89.32v.36h-6.13v-.36h.39c.34,0,.61-.07.82-.21.15-.09.27-.25.35-.47.06-.16.09-.57.09-1.24v-8.79c0-.68-.03-1.11-.09-1.28-.06-.17-.19-.32-.39-.45-.19-.13-.45-.19-.78-.19h-.39v-.36h6.13v.36h-.39c-.34,0-.61.07-.82.21-.15.09-.27.25-.35.47-.06.16-.1.57-.1,1.24v8.79c0,.68.03,1.11.1,1.28.07.17.2.32.39.45.19.13.45.19.78.19h.39Z"/>
    <path class="d" d="M377.03,85.88h-4.14l-.49,1.3c-.16.43-.24.79-.24,1.07,0,.37.13.65.4.83.16.11.54.18,1.15.24v.36h-3.9v-.36c.42-.07.77-.27,1.04-.6.27-.33.61-1,1-2.02l4.19-10.67h.16l4.23,10.96c.4,1.04.74,1.69.99,1.96.2.2.47.32.83.35v.36h-5.67v-.36h.23c.46,0,.78-.07.96-.22.13-.11.19-.26.19-.45,0-.12-.02-.24-.05-.36-.01-.06-.1-.31-.26-.74l-.62-1.67ZM376.73,85.15l-1.75-4.6-1.8,4.6h3.55Z"/>
    <path class="d" d="M397.72,76.01v4.63h-.34c-.25-1.21-.73-2.14-1.42-2.78-.69-.64-1.48-.97-2.35-.97-.73,0-1.4.24-2.01.72-.61.48-1.06,1.11-1.34,1.88-.36.99-.54,2.1-.54,3.31s.13,2.29.4,3.27.68,1.73,1.25,2.23c.57.5,1.3.75,2.2.75.74,0,1.41-.18,2.03-.55.61-.37,1.26-1,1.94-1.9v1.15c-.66.78-1.34,1.35-2.05,1.7-.71.35-1.54.53-2.49.53-1.25,0-2.36-.29-3.33-.86-.97-.57-1.72-1.39-2.25-2.46-.53-1.07-.79-2.21-.79-3.42,0-1.28.29-2.48.88-3.63.59-1.14,1.38-2.03,2.37-2.66.99-.63,2.05-.95,3.17-.95.82,0,1.69.2,2.61.61.53.24.87.35,1.01.35.18,0,.34-.08.48-.23s.22-.4.26-.73h.34Z"/>
    <path class="d" d="M405.53,76.13c1.87-.08,3.39.54,4.55,1.86,1.17,1.32,1.75,2.97,1.75,4.96,0,1.7-.44,3.19-1.31,4.48-1.15,1.71-2.78,2.56-4.89,2.56s-3.74-.81-4.89-2.44c-.91-1.29-1.37-2.82-1.37-4.59,0-1.98.59-3.64,1.78-4.96,1.18-1.32,2.64-1.95,4.37-1.87ZM405.63,76.76c-1.07,0-1.89.62-2.45,1.87-.46,1.03-.68,2.5-.68,4.42,0,2.28.35,3.97,1.06,5.06.49.76,1.18,1.14,2.06,1.14.59,0,1.09-.16,1.49-.49.51-.42.9-1.09,1.18-2.02.28-.92.42-2.13.42-3.61,0-1.77-.14-3.09-.43-3.97-.29-.88-.66-1.5-1.1-1.86-.45-.36-.96-.54-1.54-.54Z"/>
    <path class="d" d="M416.88,76.32l5.79,8.29v-5.75c0-.8-.1-1.34-.3-1.63-.28-.38-.74-.57-1.39-.55v-.36h3.87v.36c-.5.07-.83.17-1,.28-.17.12-.3.3-.4.56-.09.26-.14.7-.14,1.34v11.13h-.29l-7.93-11.13v8.5c0,.77.15,1.29.46,1.56.31.27.66.4,1.06.4h.28v.36h-4.16v-.36c.65,0,1.09-.16,1.35-.45s.38-.8.38-1.51v-9.44l-.25-.36c-.25-.35-.47-.59-.66-.7s-.46-.17-.82-.19v-.36h4.16Z"/>
    <path class="d" d="M437.08,76.01v4.63h-.34c-.25-1.21-.73-2.14-1.42-2.78-.69-.64-1.48-.97-2.35-.97-.73,0-1.4.24-2.01.72-.61.48-1.06,1.11-1.34,1.88-.36.99-.54,2.1-.54,3.31s.13,2.29.4,3.27.68,1.73,1.25,2.23c.57.5,1.3.75,2.2.75.74,0,1.41-.18,2.03-.55.61-.37,1.26-1,1.94-1.9v1.15c-.66.78-1.34,1.35-2.05,1.7-.71.35-1.54.53-2.49.53-1.25,0-2.36-.29-3.33-.86-.97-.57-1.72-1.39-2.25-2.46-.53-1.07-.79-2.21-.79-3.42,0-1.28.29-2.48.88-3.63.59-1.14,1.38-2.03,2.37-2.66.99-.63,2.05-.95,3.17-.95.82,0,1.69.2,2.61.61.53.24.87.35,1.01.35.18,0,.34-.08.48-.23s.22-.4.26-.73h.34Z"/>
    <path class="d" d="M444.53,89.32v.36h-6.13v-.36h.39c.34,0,.61-.07.82-.21.15-.09.27-.25.35-.47.06-.16.09-.57.09-1.24v-8.79c0-.68-.03-1.11-.09-1.28-.06-.17-.19-.32-.39-.45-.19-.13-.45-.19-.78-.19h-.39v-.36h6.13v.36h-.39c-.34,0-.61.07-.82.21-.15.09-.27.25-.35.47-.06.16-.1.57-.1,1.24v8.79c0,.68.03,1.11.1,1.28.07.17.2.32.39.45.19.13.45.19.78.19h.39Z"/>
    <path class="d" d="M452.31,85.88h-4.14l-.49,1.3c-.16.43-.24.79-.24,1.07,0,.37.13.65.4.83.16.11.54.18,1.15.24v.36h-3.9v-.36c.42-.07.77-.27,1.04-.6.27-.33.61-1,1-2.02l4.19-10.67h.16l4.23,10.96c.4,1.04.74,1.69.99,1.96.2.2.47.32.83.35v.36h-5.67v-.36h.23c.46,0,.78-.07.96-.22.13-.11.19-.26.19-.45,0-.12-.02-.24-.05-.36-.01-.06-.1-.31-.26-.74l-.62-1.67ZM452.01,85.15l-1.75-4.6-1.8,4.6h3.55Z"/>
    <path class="d" d="M462.43,83.59v3.75c0,.72.04,1.18.12,1.37s.21.34.41.45c.2.11.56.17,1.1.17v.36h-6v-.36c.54,0,.91-.06,1.1-.17s.33-.26.41-.45c.08-.18.12-.64.12-1.36v-8.68c0-.72-.04-1.18-.12-1.37-.08-.19-.21-.34-.41-.45-.2-.11-.56-.17-1.1-.17v-.36h5.45c1.42,0,2.46.11,3.11.34.66.22,1.19.64,1.61,1.24.42.6.62,1.31.62,2.11,0,.99-.31,1.8-.93,2.45-.4.41-.95.71-1.67.92l2.82,4.53c.37.59.63.95.79,1.09.24.2.51.32.82.33v.36h-3.69l-3.78-6.09h-.77ZM462.43,77.04v5.86h.49c.8,0,1.4-.08,1.8-.25.4-.17.71-.47.94-.91.23-.44.34-1.01.34-1.71,0-1.02-.21-1.77-.63-2.26-.42-.49-1.09-.73-2.02-.73h-.93Z"/>
    <path class="d" d="M477,89.32v.36h-6.13v-.36h.39c.34,0,.61-.07.82-.21.15-.09.27-.25.35-.47.06-.16.09-.57.09-1.24v-8.79c0-.68-.03-1.11-.09-1.28-.06-.17-.19-.32-.39-.45-.19-.13-.45-.19-.78-.19h-.39v-.36h6.13v.36h-.39c-.34,0-.61.07-.82.21-.15.09-.27.25-.35.47-.06.16-.1.57-.1,1.24v8.79c0,.68.03,1.11.1,1.28.07.17.2.32.39.45.19.13.45.19.78.19h.39Z"/>
    <path class="d" d="M484.78,85.88h-4.14l-.49,1.3c-.16.43-.24.79-.24,1.07,0,.37.13.65.4.83.16.11.54.18,1.15.24v.36h-3.9v-.36c.42-.07.77-.27,1.04-.6.27-.33.61-1,1-2.02l4.19-10.67h.16l4.23,10.96c.4,1.04.74,1.69.99,1.96.2.2.47.32.83.35v.36h-5.67v-.36h.23c.46,0,.78-.07.96-.22.13-.11.19-.26.19-.45,0-.12-.02-.24-.05-.36-.01-.06-.1-.31-.26-.74l-.62-1.67ZM484.48,85.15l-1.75-4.6-1.8,4.6h3.55Z"/>
  </g>
</svg>