<svg id="Layer_1" xmlns="http://www.w3.org/2000/svg" viewBox="0 0 40 220"><style>.st0{fill-rule:evenodd;clip-rule:evenodd;fill:#fff}</style><path class="st0" d="M2.2 169.3v2.9l1.9 1c-2 3.1-3.1 6.3-3.1 10 0 11.8 10.8 20.5 22.2 20.5 9.3 0 15.8-5.8 15.8-15.3 0-3.9-1.5-7.8-3.9-10.9l2.4-.6v-5.8l-9.3-1.7c-1.5-.3-2.8-.4-3.6-1.9-.5-1-.6-2-.6-3.1l-4.1-.7v17.2l4.2.8c.3-1.9.3-4 2.8-4 4.2 0 7 4.7 7 8.5 0 5.8-5 7.7-10 7.7-6.7 0-17.8-3.4-17.8-11.6 0-2.6 1.2-5 2.8-6.8 2-2.2 4-3.1 6.5-4.4l-.3-4-12.9 2.2zm35.3-6.7v-8.4l-6.7-1.3c-3.2-.7-8.1-1.5-10.9-3-1.2-.6-3-2-3-3.6 0-1.5 2-2.1 2-5 0-2.6-1.5-5-4.3-5s-3.9 3-3.9 5.4c0 3.1 1.8 6.3 4.2 8.2l-.1.1-3.7-.7v2.8c1.3 3 1.5 6.6 1.7 9.9l4.4.8c.1-1.4.2-3.6 1.8-3.6.1 0-.1.1.1.1l18.4 3.3zm-3.7-38.3c0 2.9-2.1 4-4.7 4s-6.8-1-9.2-2.1c-2.6-1.2-4.6-2.7-4.6-5.8 0-3 2-4.1 4.7-4.1 2.8 0 6.8.9 9.3 2 2.6 1.4 4.5 3 4.5 6zm4.7.2c0-10.1-7.5-17.2-17.3-17.2-3.2 0-6.5 1.5-8.3 4.3-1.6 2.5-2.2 5.9-2.2 8.8 0 4.7 1.5 9.2 5 12.5 3.1 2.9 7.8 4.7 11.9 4.7 7.6-.1 10.9-6.1 10.9-13.1zM20.4 90.7c-.5 1.4-1 2.8-2.7 2.8-2.1 0-2.8-2.1-2.8-3.8 0-4.9 4.1-3.8 4.1-8.2 0-1.7-1.1-3.3-2.9-3.3-4.4 0-5.5 8.5-5.5 11.8 0 3 .6 6.2 2.1 8.8 1.5 2.7 4.2 4.7 7.3 4.7 4.6 0 6.1-3.9 7.1-7.6l.7-2.5c.4-1.4.9-3.7 2.8-3.7 2.6 0 3.5 2.7 3.5 4.8 0 2.1-.9 3.1-2.3 4.4-1.4 1.2-2.3 2.6-2.3 4.6 0 1.9 1.2 3.5 3.2 3.5 4.6 0 5.9-9 5.9-12.4 0-3.4-.6-6.8-2.2-9.9-1.4-2.8-4.4-5.5-7.7-5.5-4.4 0-5.6 3.4-6.8 6.9l-1.5 4.6zm0-28.7c-.5 1.4-1 2.8-2.7 2.8-2.1 0-2.8-2.1-2.8-3.8 0-4.9 4.1-3.8 4.1-8.2 0-1.7-1.1-3.3-2.9-3.3-4.4 0-5.5 8.5-5.5 11.8 0 3 .6 6.2 2.1 8.8 1.5 2.7 4.2 4.7 7.3 4.7 4.6 0 6.1-3.9 7.1-7.6l.7-2.5c.4-1.4.9-3.7 2.8-3.7 2.6 0 3.5 2.7 3.5 4.8 0 2.1-.9 3.1-2.3 4.4-1.4 1.2-2.3 2.6-2.3 4.6 0 1.9 1.2 3.5 3.2 3.5 4.6 0 5.9-9 5.9-12.4 0-3.4-.6-6.8-2.2-9.9-1.4-2.8-4.4-5.5-7.7-5.5-4.4 0-5.6 3.4-6.8 6.9L20.4 62zm13.4-27.1c0 2.9-2.1 4-4.7 4s-6.8-1-9.2-2.1c-2.6-1.2-4.6-2.7-4.6-5.8 0-3 2-4.1 4.7-4.1 2.8 0 6.8.9 9.3 2 2.6 1.3 4.5 2.9 4.5 6zm4.7.1c0-10.1-7.5-17.2-17.3-17.2-3.2 0-6.5 1.5-8.3 4.3-1.6 2.4-2.2 5.9-2.2 8.8 0 4.7 1.5 9.2 5 12.5 3.1 2.9 7.8 4.7 11.9 4.7 7.6 0 10.9-6.1 10.9-13.1zm151.8 174.8v8.2l-10.8-6.1 10.8-2.1zm-17.6-4.6v7.5l22.7 13.4c3.6 2.1 5.6 2.8 6.5 7.6l3.7.7V220l-3.8-.7c-.1 1 0 3.8-1.4 3.8-.7 0-1.2-.2-1.8-.5l-4.7-2.5V209l6.2-1.1c.1-.1.3-.1.4-.1 1.2 0 1.7 2.4 1.7 3.6v.9l3.5.7v-17.6l-3.8-.7v.6c-.3 1.2-.3 2.4-1.6 3-.8.4-2.4.8-3.3 1l-24.3 5.9zm32.9-20.1l-18.1-3.3c-1-1.2-1.6-3.2-1.6-4.9 0-1.5.7-3.2 2.2-3.2.1 0 .3 0 .5.1l13 2.4h.7c2.8 0 4.3-3.4 4.3-6.3 0-3.1-1.5-5.9-3.5-8.2l-2.7 1.9.4.5c.4.5.6 1.1.6 1.8 0 1-.7 1.9-1.6 1.9-.1 0-.2-.1-.3-.1l-13-2.3c-.3-.1-.5-.1-.8-.1-3.3 0-4.9 4-4.9 7.3 0 2.7 1.1 6.2 2.9 8.2l-.1.1-2.4-.4v2.7c1.2 3.2 1.2 6.7 1.6 9.3l3.3.6c0-1.3.5-3.4 2-3.4.1 0-.1 0 0 0l17.7 3.2v-7.8zm-20-38.4v-6.8l-4.7-.8v6.8l-7-1.3v4.5c3.5 1.3 7.3 3.8 8.4 8.4l3.3.6v-3.5l16.1 2.8h.7c3 0 4.2-3.6 4.2-6.6 0-4-1.8-7.9-4.5-10.8l-3.3 2.1c.9 1.1 2.7 3.9 2.7 5.3 0 1-.7 1.9-1.6 1.9h-.2l-14.1-2.6zm16.6-20.4c0 2.7-1.9 3.8-4.4 3.8-2.4 0-6.4-.9-8.6-1.9-2.4-1.1-4.3-2.5-4.3-5.4 0-2.8 1.8-3.8 4.4-3.8 2.6 0 6.3.8 8.7 1.9 2.4 1 4.2 2.5 4.2 5.4zm4.4.1c0-9.4-7-16.1-16.2-16.1-3 0-6.1 1.4-7.8 4-1.5 2.3-2.1 5.5-2.1 8.3 0 4.4 1.4 8.6 4.6 11.6 2.9 2.7 7.3 4.4 11.1 4.4 7.3 0 10.4-5.6 10.4-12.2zm-1-26.9l-18.1-3.3c-1-1.2-1.6-3.2-1.6-4.9 0-1.5.7-3.2 2.2-3.2.1 0 .3 0 .5.1l13 2.4h.7c2.8 0 4.3-3.4 4.3-6.3 0-3.1-1.5-5.9-3.5-8.2l-2.7 1.9.4.5c.4.5.6 1.1.6 1.8 0 1-.7 1.9-1.6 1.9-.1 0-.2-.1-.3-.1l-13-2.3c-.3-.1-.5-.1-.8-.1-3.3 0-4.9 4-4.9 7.3 0 2.7 1.1 6.2 2.9 8.2l-.1.1-2.4-.4v2.7c1.2 3.2 1.2 6.7 1.6 9.3l3.3.6c0-1.3.5-3.4 2-3.4.1 0-.1 0 0 0l17.7 3.2v-7.8zm-27.4-35.1c-.1-1.2-.7-2.4-1.5-3.3-4.1-4.6-8.1-1.7-8.1 1.7 0 2.8 2.6 5.8 5.4 5.8 2.4 0 4.3-1.6 4.2-4.2zm2.7-3.9v2.6c1.2 2.5 1.4 6.7 1.6 10l4.1.6c0-1.2.3-2.3.8-3.2.3-.5.7-1 1.2-1h.3l12.7 2.4c.2 0 .4.2.6.2 3.1 0 4.3-3.9 4.3-6.8 0-3.2-1.6-6.1-3.6-8.4l-2.8 2.1c.6 1 1.3 1.9 1 3.2-.1.8-.9 1.4-1.8 1.4h-.1l-18.3-3.1zm21.3-16.9c0 2.7-1.9 3.8-4.4 3.8-2.4 0-6.4-.9-8.6-1.9-2.4-1.1-4.3-2.5-4.3-5.4 0-2.8 1.8-3.8 4.4-3.8 2.6 0 6.3.8 8.7 1.9 2.4 1.1 4.2 2.6 4.2 5.4zm4.4.2c0-9.4-7-16.1-16.2-16.1-3 0-6.1 1.4-7.8 4-1.5 2.3-2.1 5.5-2.1 8.3 0 4.4 1.4 8.6 4.6 11.6 2.9 2.7 7.3 4.4 11.1 4.4 7.3 0 10.4-5.6 10.4-12.2z" id="Grosso_text"/></svg>