<?xml version="1.0" encoding="utf-8"?>
<!-- Generator: Adobe Illustrator 19.2.1, SVG Export Plug-In . SVG Version: 6.00 Build 0)  -->
<svg version="1.1" id="Layer_1" xmlns="http://www.w3.org/2000/svg" xmlns:xlink="http://www.w3.org/1999/xlink" x="0px" y="0px"
	 viewBox="0 0 40 220" style="enable-background:new 0 0 40 220;" xml:space="preserve">
<style type="text/css">
	.st0{fill-rule:evenodd;clip-rule:evenodd;fill:#fff;}
</style>
<g id="Grosso_text">
	<path class="st0" d="M2.2,169.3v2.9l1.9,1c-2,3.1-3.1,6.3-3.1,10c0,11.8,10.8,20.5,22.2,20.5c9.3,0,15.8-5.8,15.8-15.3
		c0-3.9-1.5-7.8-3.9-10.9l2.4-0.6v-5.8l-9.3-1.7c-1.5-0.3-2.8-0.4-3.6-1.9c-0.5-1-0.6-2-0.6-3.1l-4.1-0.7v17.2l4.2,0.8
		c0.3-1.9,0.3-4,2.8-4c4.2,0,7,4.7,7,8.5c0,5.8-5,7.7-10,7.7c-6.7,0-17.8-3.4-17.8-11.6c0-2.6,1.2-5,2.8-6.8c2-2.2,4-3.1,6.5-4.4
		l-0.3-4L2.2,169.3z"/>
	<path class="st0" d="M37.5,162.6v-8.4l-6.7-1.3c-3.2-0.7-8.1-1.5-10.9-3c-1.2-0.6-3-2-3-3.6c0-1.5,2-2.1,2-5c0-2.6-1.5-5-4.3-5
		c-2.8,0-3.9,3-3.9,5.4c0,3.1,1.8,6.3,4.2,8.2l-0.1,0.1l-3.7-0.7v2.8c1.3,3,1.5,6.6,1.7,9.9l4.4,0.8c0.1-1.4,0.2-3.6,1.8-3.6
		c0.1,0-0.1,0.1,0.1,0.1L37.5,162.6z"/>
	<path class="st0" d="M33.8,124.3c0,2.9-2.1,4-4.7,4c-2.6,0-6.8-1-9.2-2.1c-2.6-1.2-4.6-2.7-4.6-5.8c0-3,2-4.1,4.7-4.1
		c2.8,0,6.8,0.9,9.3,2C31.9,119.7,33.8,121.3,33.8,124.3z M38.5,124.5c0-10.1-7.5-17.2-17.3-17.2c-3.2,0-6.5,1.5-8.3,4.3
		c-1.6,2.5-2.2,5.9-2.2,8.8c0,4.7,1.5,9.2,5,12.5c3.1,2.9,7.8,4.7,11.9,4.7C35.2,137.5,38.5,131.5,38.5,124.5z"/>
	<path class="st0" d="M20.4,90.7c-0.5,1.4-1,2.8-2.7,2.8c-2.1,0-2.8-2.1-2.8-3.8c0-4.9,4.1-3.8,4.1-8.2c0-1.7-1.1-3.3-2.9-3.3
		c-4.4,0-5.5,8.5-5.5,11.8c0,3,0.6,6.2,2.1,8.8c1.5,2.7,4.2,4.7,7.3,4.7c4.6,0,6.1-3.9,7.1-7.6l0.7-2.5c0.4-1.4,0.9-3.7,2.8-3.7
		c2.6,0,3.5,2.7,3.5,4.8c0,2.1-0.9,3.1-2.3,4.4c-1.4,1.2-2.3,2.6-2.3,4.6c0,1.9,1.2,3.5,3.2,3.5c4.6,0,5.9-9,5.9-12.4
		c0-3.4-0.6-6.8-2.2-9.9c-1.4-2.8-4.4-5.5-7.7-5.5c-4.4,0-5.6,3.4-6.8,6.9L20.4,90.7z"/>
	<path class="st0" d="M20.4,62c-0.5,1.4-1,2.8-2.7,2.8c-2.1,0-2.8-2.1-2.8-3.8c0-4.9,4.1-3.8,4.1-8.2c0-1.7-1.1-3.3-2.9-3.3
		c-4.4,0-5.5,8.5-5.5,11.8c0,3,0.6,6.2,2.1,8.8c1.5,2.7,4.2,4.7,7.3,4.7c4.6,0,6.1-3.9,7.1-7.6l0.7-2.5c0.4-1.4,0.9-3.7,2.8-3.7
		c2.6,0,3.5,2.7,3.5,4.8c0,2.1-0.9,3.1-2.3,4.4c-1.4,1.2-2.3,2.6-2.3,4.6c0,1.9,1.2,3.5,3.2,3.5c4.6,0,5.9-9,5.9-12.4
		c0-3.4-0.6-6.8-2.2-9.9c-1.4-2.8-4.4-5.5-7.7-5.5c-4.4,0-5.6,3.4-6.8,6.9L20.4,62z"/>
	<path class="st0" d="M33.8,34.9c0,2.9-2.1,4-4.7,4c-2.6,0-6.8-1-9.2-2.1c-2.6-1.2-4.6-2.7-4.6-5.8c0-3,2-4.1,4.7-4.1
		c2.8,0,6.8,0.9,9.3,2C31.9,30.2,33.8,31.8,33.8,34.9z M38.5,35c0-10.1-7.5-17.2-17.3-17.2c-3.2,0-6.5,1.5-8.3,4.3
		c-1.6,2.4-2.2,5.9-2.2,8.8c0,4.7,1.5,9.2,5,12.5c3.1,2.9,7.8,4.7,11.9,4.7C35.2,48.1,38.5,42,38.5,35z"/>
	<path class="st0" d="M190.3,209.8v8.2l-10.8-6.1L190.3,209.8z M172.7,205.2v7.5l22.7,13.4c3.6,2.1,5.6,2.8,6.5,7.6l3.7,0.7v-14.4
		l-3.8-0.7c-0.1,1,0,3.8-1.4,3.8c-0.7,0-1.2-0.2-1.8-0.5l-4.7-2.5v-11.1l6.2-1.1c0.1-0.1,0.3-0.1,0.4-0.1c1.2,0,1.7,2.4,1.7,3.6v0.9
		l3.5,0.7v-17.6l-3.8-0.7l0,0.6c-0.3,1.2-0.3,2.4-1.6,3c-0.8,0.4-2.4,0.8-3.3,1L172.7,205.2z"/>
	<path class="st0" d="M205.6,185.1l-18.1-3.3c-1-1.2-1.6-3.2-1.6-4.9c0-1.5,0.7-3.2,2.2-3.2c0.1,0,0.3,0,0.5,0.1l13,2.4
		c0.3,0,0.5,0,0.7,0c2.8,0,4.3-3.4,4.3-6.3c0-3.1-1.5-5.9-3.5-8.2l-2.7,1.9l0.4,0.5c0.4,0.5,0.6,1.1,0.6,1.8c0,1-0.7,1.9-1.6,1.9
		c-0.1,0-0.2-0.1-0.3-0.1l-13-2.3c-0.3-0.1-0.5-0.1-0.8-0.1c-3.3,0-4.9,4-4.9,7.3c0,2.7,1.1,6.2,2.9,8.2l-0.1,0.1l-2.4-0.4v2.7
		c1.2,3.2,1.2,6.7,1.6,9.3l3.3,0.6c0-1.3,0.5-3.4,2-3.4c0.1,0-0.1,0,0,0l17.7,3.2V185.1z"/>
	<path class="st0" d="M185.6,146.7v-6.8l-4.7-0.8v6.8l-7-1.3v4.5c3.5,1.3,7.3,3.8,8.4,8.4l3.3,0.6v-3.5l16.1,2.8c0.2,0,0.4,0,0.7,0
		c3,0,4.2-3.6,4.2-6.6c0-4-1.8-7.9-4.5-10.8l-3.3,2.1c0.9,1.1,2.7,3.9,2.7,5.3c0,1-0.7,1.9-1.6,1.9h-0.2L185.6,146.7z"/>
	<path class="st0" d="M202.2,126.3c0,2.7-1.9,3.8-4.4,3.8c-2.4,0-6.4-0.9-8.6-1.9c-2.4-1.1-4.3-2.5-4.3-5.4c0-2.8,1.8-3.8,4.4-3.8
		c2.6,0,6.3,0.8,8.7,1.9C200.4,121.9,202.2,123.4,202.2,126.3z M206.6,126.4c0-9.4-7-16.1-16.2-16.1c-3,0-6.1,1.4-7.8,4
		c-1.5,2.3-2.1,5.5-2.1,8.3c0,4.4,1.4,8.6,4.6,11.6c2.9,2.7,7.3,4.4,11.1,4.4C203.5,138.6,206.6,133,206.6,126.4z"/>
	<path class="st0" d="M205.6,99.5l-18.1-3.3c-1-1.2-1.6-3.2-1.6-4.9c0-1.5,0.7-3.2,2.2-3.2c0.1,0,0.3,0,0.5,0.1l13,2.4
		c0.3,0,0.5,0,0.7,0c2.8,0,4.3-3.4,4.3-6.3c0-3.1-1.5-5.9-3.5-8.2l-2.7,1.9l0.4,0.5c0.4,0.5,0.6,1.1,0.6,1.8c0,1-0.7,1.9-1.6,1.9
		c-0.1,0-0.2-0.1-0.3-0.1l-13-2.3c-0.3-0.1-0.5-0.1-0.8-0.1c-3.3,0-4.9,4-4.9,7.3c0,2.7,1.1,6.2,2.9,8.2l-0.1,0.1l-2.4-0.4v2.7
		c1.2,3.2,1.2,6.7,1.6,9.3l3.3,0.6c0-1.3,0.5-3.4,2-3.4c0.1,0-0.1,0,0,0l17.7,3.2V99.5z"/>
	<path class="st0" d="M178.2,64.4c-0.1-1.2-0.7-2.4-1.5-3.3c-4.1-4.6-8.1-1.7-8.1,1.7c0,2.8,2.6,5.8,5.4,5.8
		C176.4,68.6,178.3,67,178.2,64.4z M180.9,60.5v2.6c1.2,2.5,1.4,6.7,1.6,10l4.1,0.6c0-1.2,0.3-2.3,0.8-3.2c0.3-0.5,0.7-1,1.2-1h0.3
		l12.7,2.4c0.2,0,0.4,0.2,0.6,0.2c3.1,0,4.3-3.9,4.3-6.8c0-3.2-1.6-6.1-3.6-8.4l-2.8,2.1c0.6,1,1.3,1.9,1,3.2
		c-0.1,0.8-0.9,1.4-1.8,1.4h-0.1L180.9,60.5z"/>
	<path class="st0" d="M202.2,43.6c0,2.7-1.9,3.8-4.4,3.8c-2.4,0-6.4-0.9-8.6-1.9c-2.4-1.1-4.3-2.5-4.3-5.4c0-2.8,1.8-3.8,4.4-3.8
		c2.6,0,6.3,0.8,8.7,1.9C200.4,39.3,202.2,40.8,202.2,43.6z M206.6,43.8c0-9.4-7-16.1-16.2-16.1c-3,0-6.1,1.4-7.8,4
		c-1.5,2.3-2.1,5.5-2.1,8.3c0,4.4,1.4,8.6,4.6,11.6c2.9,2.7,7.3,4.4,11.1,4.4C203.5,56,206.6,50.4,206.6,43.8z"/>
</g>
</svg>
