<?xml version="1.0" encoding="utf-8"?>
<!-- Generator: Adobe Illustrator 19.2.1, SVG Export Plug-In . SVG Version: 6.00 Build 0)  -->
<svg version="1.1" id="Layer_1" xmlns="http://www.w3.org/2000/svg" xmlns:xlink="http://www.w3.org/1999/xlink" x="0px" y="0px"
	 viewBox="0 0 64 28" style="enable-background:new 0 0 64 28;" xml:space="preserve">
<style type="text/css">
	.st0{fill-rule:evenodd;clip-rule:evenodd;}
	.st1{fill-rule:evenodd;clip-rule:evenodd;fill:#F15A24;}
	.st2{fill-rule:evenodd;clip-rule:evenodd;fill:#3D815C;}
	.st3{fill-rule:evenodd;clip-rule:evenodd;fill:#999999;}
</style>
<g>
	<path class="st0" d="M55.8,4h5.8C61.8,4,62,3.8,62,3.6V1.9c0-0.2-0.2-0.4-0.4-0.4h-5.8c-0.2,0-0.4,0.2-0.4,0.4v1.6
		C55.4,3.8,55.6,4,55.8,4z"/>
	<path class="st0" d="M28.7,16.4h6.5c0.2,0,0.4-0.2,0.4-0.5v-2.1c0-0.2-0.2-0.5-0.4-0.5h-6.5c-0.2,0-0.4,0.2-0.4,0.5v2.1
		C28.3,16.2,28.5,16.4,28.7,16.4z"/>
	<path class="st1" d="M49.4,6.3h-3.8C45.3,6.3,45,6,45,5.8V2c0-0.3,0.2-0.5,0.5-0.5h3.8c0.3,0,0.5,0.2,0.5,0.5v3.7
		C49.9,6,49.6,6.3,49.4,6.3z"/>
	<path class="st2" d="M58.5,22.4H5.9c-0.2,0-0.4-0.2-0.4-0.4V6.6c0-0.2-0.2-0.4-0.4-0.4H2.4C2.2,6.3,2,6.4,2,6.6v19.5
		c0,0.2,0.2,0.4,0.4,0.4h2.8c0.2,0,0.4-0.2,0.4-0.4v-1.8c0-0.2,0.2-0.4,0.4-0.4h52.2c0.2,0,0.4,0.2,0.4,0.4v1.8
		c0,0.2,0.2,0.4,0.4,0.4h2.8c0.2,0,0.4-0.2,0.4-0.4V6.6c0-0.2-0.2-0.4-0.4-0.4h-2.8c-0.2,0-0.4,0.2-0.4,0.4V22.4"/>
	<rect x="5.5" y="17.9" class="st2" width="52.9" height="1.7"/>
	<rect x="2" y="5.9" class="st2" width="60" height="2.5"/>
	<polyline class="st3" points="5.5,8.4 58.5,8.4 58.5,10.5 47.5,12.2 38.2,13.9 25.8,13.9 16.6,12.2 5.5,9.7 5.5,8.4 	"/>
	<rect x="58.5" y="3.6" class="st2" width="3.5" height="2.3"/>
	<path class="st0" d="M8.6,18.1v-3.4c0-0.3,0.2-0.5,0.5-0.5H11c0.3,0,0.5,0.2,0.5,0.5v3.4c0,0.3-0.2,0.5-0.5,0.5H9.1
		C8.9,18.6,8.6,18.3,8.6,18.1z"/>
	<rect x="58.5" y="3.5" class="st0" width="3.5" height="0.5"/>
</g>
</svg>
