<?xml version="1.0" encoding="UTF-8"?>
<svg id="a" data-name="Layer_1" xmlns="http://www.w3.org/2000/svg" viewBox="0 0 1000 1000">
  <defs>
    <style>
      .b {
        fill: #664c38;
      }
    </style>
  </defs>
  <path class="b" d="M516.92,980.17c-72.17.13-135.8-10.33-196.81-34.76-59.22-23.72-111.64-57.62-154.21-105.6-12.18-13.73-10.59-7.84-7.36-25.71,12.58-69.61,41.13-131.61,89.5-183.8,25.17-27.15,54.65-48.64,87.8-65.13,1.9-.94,3.17-1.03,4.93.46,35.35,29.67,76.65,46.62,121.32,55.95,13.91,2.9,28.1,5.57,42.24,5.98,13.85.41,27.92-1.36,41.65-3.63,34.79-5.73,68.1-16.36,98.68-34.21,11.8-6.89,22.74-15.28,33.88-23.26,2.46-1.76,4.05-2.33,6.96-.87,57.79,29.13,101.89,72.48,133.61,128.62,22.02,38.98,36.36,80.68,43.85,124.82,1.12,6.58-.09,11.42-4.52,16.56-29.66,34.45-64.94,61.87-104.36,84.12-50.79,28.67-105.33,46.31-162.95,54.74-26.81,3.92-53.75,5.88-74.22,5.72Z"/>
  <path class="b" d="M700.12,309.9c-.25,105-84.23,188.71-187.6,189.91-105.56,1.22-192.07-83.08-192.29-190.05-.22-105.18,85.22-189.72,191.04-189.69,103.91.03,188.8,85.35,188.85,189.83Z"/>
  <path class="b" d="M863.93,309.98c0,15.2,0,30.4,0,45.6-.01,18.8-12.53,31.8-31.4,31.99-16.52.17-33.04-.29-49.57-.3-1.11,0-2.87,1.24-3.23,2.28-6.94,20.21-15.6,39.64-26.62,57.96-1.41,2.35-.26,3.59.81,5.27,11.38,17.71,3.21,40.96-16.57,47.2-12.5,3.94-26.2-.25-34.11-10.43-8.16-10.5-8.88-25.07-1.79-36.33,6.69-10.63,20-16.31,32.64-13.53,3.01.66,4.54.15,6.06-2.52,9.99-17.52,18.18-35.83,24.48-54.99.74-2.23.54-3.87-1.08-5.76-4.87-5.69-6.93-12.43-6.91-19.93.06-27.07,0-54.13.03-81.2.02-13.67-3.98-26.57-7.94-39.38-11.98-38.75-32.31-72.66-60.83-101.49-35.62-36.01-78.17-60.04-127.99-69.44-84.73-15.98-159.28,5.61-222.27,64.56-39.55,37.02-63.38,83.07-73.45,136.25-.34,1.82-.36,3.71-.37,5.57-.02,27.87-.01,55.73-.02,83.6,0,18.66-11.12,31.52-29.69,32.42-16.61.8-33.34.66-49.95-.22-16.2-.86-27.68-13.7-27.78-30.04-.2-31.46-.2-62.93,0-94.39.11-17.46,13.52-30.33,31.01-30.34,16-.01,32-.02,47.99.18,2.56.03,2.73-1.34,3.25-3.04,6.5-21.49,15-42.18,26.55-61.44,43.09-71.83,105.1-118.78,187.36-135.24,98.24-19.66,184.43,6.58,256.73,76.11,34.58,33.25,58.02,73.67,72.01,119.54.98,3.22,2.21,4.1,5.71,4.03,15.73-.32,31.46-.27,47.19-.1,16.43.17,29.58,13.51,29.68,29.99.1,15.87.02,31.73.02,47.6Z"/>
</svg>