<svg id="Layer_1" xmlns="http://www.w3.org/2000/svg" viewBox="0 0 64 28"><style>.st0,.st1,.st2,.st3{fill-rule:evenodd;clip-rule:evenodd}.st1{fill:#f15a24}.st2{fill:#3d815c}.st3{fill:#999}</style><path class="st0" d="M55.8 4h5.8c.2 0 .4-.2.4-.4V1.9c0-.2-.2-.4-.4-.4h-5.8c-.2 0-.4.2-.4.4v1.6c0 .3.2.5.4.5zM28.7 16.4h6.5c.2 0 .4-.2.4-.5v-2.1c0-.2-.2-.5-.4-.5h-6.5c-.2 0-.4.2-.4.5v2.1c0 .3.2.5.4.5z"/><path class="st1" d="M49.4 6.3h-3.8c-.3 0-.6-.3-.6-.5V2c0-.3.2-.5.5-.5h3.8c.3 0 .5.2.5.5v3.7c.1.3-.2.6-.4.6z"/><path class="st2" d="M58.5 22.4H5.9c-.2 0-.4-.2-.4-.4V6.6c0-.2-.2-.4-.4-.4H2.4c-.2.1-.4.2-.4.4v19.5c0 .2.2.4.4.4h2.8c.2 0 .4-.2.4-.4v-1.8c0-.2.2-.4.4-.4h52.2c.2 0 .4.2.4.4v1.8c0 .2.2.4.4.4h2.8c.2 0 .4-.2.4-.4V6.6c0-.2-.2-.4-.4-.4H59c-.2 0-.4.2-.4.4v15.8"/><path class="st2" d="M5.5 17.9h52.9v1.7H5.5zM2 5.9h60v2.5H2z"/><path class="st3" d="M5.5 8.4h53v2.1l-11 1.7-9.3 1.7H25.8l-9.2-1.7L5.5 9.7V8.4"/><path class="st2" d="M58.5 3.6H62v2.3h-3.5z"/><path class="st0" d="M8.6 18.1v-3.4c0-.3.2-.5.5-.5H11c.3 0 .5.2.5.5v3.4c0 .3-.2.5-.5.5H9.1c-.2 0-.5-.3-.5-.5zM58.5 3.5H62V4h-3.5z"/></svg>